{
	"patcher" : 	{
		"fileversion" : 1,
		"rect" : [ 3.0, 44.0, 1164.0, 660.0 ],
		"bglocked" : 0,
		"defrect" : [ 3.0, 44.0, 1164.0, 660.0 ],
		"openrect" : [ 0.0, 0.0, 0.0, 0.0 ],
		"openinpresentation" : 0,
		"default_fontsize" : 10.0,
		"default_fontface" : 0,
		"default_fontname" : "Verdana",
		"gridonopen" : 0,
		"gridsize" : [ 12.0, 12.0 ],
		"gridsnaponopen" : 0,
		"toolbarvisible" : 1,
		"boxanimatetime" : 200,
		"imprint" : 0,
		"enablehscroll" : 1,
		"enablevscroll" : 1,
		"devicewidth" : 0.0,
		"boxes" : [ 			{
				"box" : 				{
					"maxclass" : "newobj",
					"text" : "loadmess 30.",
					"hidden" : 1,
					"fontname" : "Verdana",
					"numinlets" : 1,
					"numoutlets" : 1,
					"fontsize" : 10.0,
					"outlettype" : [ "" ],
					"patching_rect" : [ 923.0, 326.0, 79.0, 19.0 ],
					"id" : "obj-3"
				}

			}
, 			{
				"box" : 				{
					"maxclass" : "flonum",
					"varname" : "position[5]",
					"fontname" : "Verdana",
					"numinlets" : 1,
					"numoutlets" : 2,
					"htextcolor" : [ 0.870588, 0.870588, 0.870588, 1.0 ],
					"fontsize" : 10.0,
					"outlettype" : [ "float", "bang" ],
					"triscale" : 0.9,
					"patching_rect" : [ 923.0, 349.0, 43.0, 19.0 ],
					"id" : "obj-6"
				}

			}
, 			{
				"box" : 				{
					"maxclass" : "comment",
					"text" : "radius in metres",
					"fontname" : "Verdana",
					"numinlets" : 1,
					"numoutlets" : 0,
					"fontsize" : 10.0,
					"patching_rect" : [ 966.0, 349.0, 93.0, 19.0 ],
					"id" : "obj-26"
				}

			}
, 			{
				"box" : 				{
					"maxclass" : "flonum",
					"fontname" : "Verdana",
					"numinlets" : 1,
					"numoutlets" : 2,
					"fontsize" : 10.0,
					"outlettype" : [ "float", "bang" ],
					"patching_rect" : [ 1074.0, 415.0, 50.0, 19.0 ],
					"id" : "obj-68"
				}

			}
, 			{
				"box" : 				{
					"maxclass" : "message",
					"text" : "gain $1",
					"fontname" : "Verdana",
					"numinlets" : 2,
					"numoutlets" : 1,
					"fontsize" : 10.0,
					"outlettype" : [ "" ],
					"patching_rect" : [ 1074.0, 437.168579, 48.0, 17.0 ],
					"id" : "obj-66"
				}

			}
, 			{
				"box" : 				{
					"maxclass" : "comment",
					"text" : "• start audio",
					"fontname" : "Verdana",
					"numinlets" : 1,
					"numoutlets" : 0,
					"fontsize" : 10.0,
					"patching_rect" : [ 574.463562, 597.264343, 76.0, 19.0 ],
					"id" : "obj-1"
				}

			}
, 			{
				"box" : 				{
					"maxclass" : "comment",
					"text" : "to monitor",
					"fontname" : "Verdana",
					"numinlets" : 1,
					"numoutlets" : 0,
					"fontsize" : 10.0,
					"patching_rect" : [ 53.763462, 89.45977, 63.0, 19.0 ],
					"id" : "obj-2"
				}

			}
, 			{
				"box" : 				{
					"maxclass" : "newobj",
					"text" : "loadbang",
					"fontname" : "Verdana",
					"numinlets" : 1,
					"numoutlets" : 1,
					"fontsize" : 10.0,
					"outlettype" : [ "bang" ],
					"patching_rect" : [ 784.110901, 125.620689, 54.0, 19.0 ],
					"id" : "obj-4"
				}

			}
, 			{
				"box" : 				{
					"maxclass" : "message",
					"text" : "open rainstick.aif, loop 1, 1",
					"fontname" : "Verdana",
					"numinlets" : 2,
					"numoutlets" : 1,
					"fontsize" : 10.0,
					"outlettype" : [ "" ],
					"patching_rect" : [ 784.110901, 151.91954, 150.0, 17.0 ],
					"id" : "obj-5"
				}

			}
, 			{
				"box" : 				{
					"maxclass" : "newobj",
					"text" : "route 1",
					"fontname" : "Verdana",
					"numinlets" : 1,
					"numoutlets" : 2,
					"fontsize" : 10.0,
					"outlettype" : [ "", "" ],
					"patching_rect" : [ 853.892273, 317.383148, 48.0, 19.0 ],
					"id" : "obj-7"
				}

			}
, 			{
				"box" : 				{
					"maxclass" : "newobj",
					"text" : "route aed",
					"fontname" : "Verdana",
					"numinlets" : 1,
					"numoutlets" : 2,
					"fontsize" : 10.0,
					"outlettype" : [ "", "" ],
					"patching_rect" : [ 853.892273, 294.371643, 57.0, 19.0 ],
					"id" : "obj-8"
				}

			}
, 			{
				"box" : 				{
					"maxclass" : "newobj",
					"text" : "p dopplershift",
					"fontname" : "Verdana",
					"numinlets" : 3,
					"numoutlets" : 1,
					"fontsize" : 10.0,
					"outlettype" : [ "signal" ],
					"patching_rect" : [ 784.110901, 373.268188, 158.0, 19.0 ],
					"id" : "obj-9",
					"patcher" : 					{
						"fileversion" : 1,
						"rect" : [ 10.0, 59.0, 425.0, 365.0 ],
						"bglocked" : 0,
						"defrect" : [ 10.0, 59.0, 425.0, 365.0 ],
						"openrect" : [ 0.0, 0.0, 0.0, 0.0 ],
						"openinpresentation" : 0,
						"default_fontsize" : 11.0,
						"default_fontface" : 0,
						"default_fontname" : "Arial",
						"gridonopen" : 0,
						"gridsize" : [ 15.0, 15.0 ],
						"gridsnaponopen" : 0,
						"toolbarvisible" : 1,
						"boxanimatetime" : 200,
						"imprint" : 0,
						"enablehscroll" : 1,
						"enablevscroll" : 1,
						"devicewidth" : 0.0,
						"boxes" : [ 							{
								"box" : 								{
									"maxclass" : "newobj",
									"text" : "onepole~",
									"fontname" : "Verdana",
									"numinlets" : 2,
									"numoutlets" : 1,
									"fontsize" : 10.0,
									"outlettype" : [ "signal" ],
									"patching_rect" : [ 112.0, 226.0, 58.0, 19.0 ],
									"id" : "obj-1"
								}

							}
, 							{
								"box" : 								{
									"maxclass" : "newobj",
									"text" : "sig~",
									"fontname" : "Verdana",
									"numinlets" : 1,
									"numoutlets" : 1,
									"fontsize" : 10.0,
									"outlettype" : [ "signal" ],
									"patching_rect" : [ 112.0, 201.0, 33.0, 19.0 ],
									"id" : "obj-2"
								}

							}
, 							{
								"box" : 								{
									"maxclass" : "newobj",
									"text" : "tapout~ 0.",
									"fontname" : "Verdana",
									"numinlets" : 1,
									"numoutlets" : 1,
									"fontsize" : 10.0,
									"outlettype" : [ "signal" ],
									"patching_rect" : [ 32.0, 263.0, 65.0, 19.0 ],
									"id" : "obj-3"
								}

							}
, 							{
								"box" : 								{
									"maxclass" : "newobj",
									"text" : "tapin~ 2000",
									"fontname" : "Verdana",
									"numinlets" : 1,
									"numoutlets" : 1,
									"fontsize" : 10.0,
									"outlettype" : [ "tapconnect" ],
									"patching_rect" : [ 32.0, 226.0, 73.0, 19.0 ],
									"id" : "obj-4"
								}

							}
, 							{
								"box" : 								{
									"maxclass" : "comment",
									"text" : "radius in metres",
									"fontname" : "Verdana",
									"numinlets" : 1,
									"numoutlets" : 0,
									"fontsize" : 10.0,
									"patching_rect" : [ 285.0, 93.0, 93.0, 19.0 ],
									"id" : "obj-5"
								}

							}
, 							{
								"box" : 								{
									"maxclass" : "inlet",
									"numinlets" : 0,
									"numoutlets" : 1,
									"outlettype" : [ "float" ],
									"patching_rect" : [ 259.0, 92.0, 25.0, 25.0 ],
									"id" : "obj-6",
									"comment" : "metres per unit"
								}

							}
, 							{
								"box" : 								{
									"maxclass" : "newobj",
									"text" : "zl nth 3",
									"fontname" : "Verdana",
									"numinlets" : 2,
									"numoutlets" : 2,
									"fontsize" : 10.0,
									"outlettype" : [ "", "" ],
									"patching_rect" : [ 112.0, 121.0, 48.0, 19.0 ],
									"id" : "obj-7"
								}

							}
, 							{
								"box" : 								{
									"maxclass" : "inlet",
									"numinlets" : 0,
									"numoutlets" : 1,
									"outlettype" : [ "" ],
									"patching_rect" : [ 112.0, 92.0, 25.0, 25.0 ],
									"id" : "obj-8",
									"comment" : "aed coordinate triplet"
								}

							}
, 							{
								"box" : 								{
									"maxclass" : "newobj",
									"text" : "* 1.",
									"fontname" : "Verdana",
									"numinlets" : 2,
									"numoutlets" : 1,
									"fontsize" : 10.0,
									"outlettype" : [ "float" ],
									"patching_rect" : [ 112.0, 152.0, 32.5, 19.0 ],
									"id" : "obj-9"
								}

							}
, 							{
								"box" : 								{
									"maxclass" : "newobj",
									"text" : "/ 0.3438",
									"fontname" : "Verdana",
									"numinlets" : 2,
									"numoutlets" : 1,
									"fontsize" : 10.0,
									"outlettype" : [ "float" ],
									"patching_rect" : [ 112.0, 176.0, 54.0, 19.0 ],
									"id" : "obj-10"
								}

							}
, 							{
								"box" : 								{
									"maxclass" : "outlet",
									"numinlets" : 1,
									"numoutlets" : 0,
									"patching_rect" : [ 32.0, 287.0, 25.0, 25.0 ],
									"id" : "obj-11",
									"comment" : "signal out"
								}

							}
, 							{
								"box" : 								{
									"maxclass" : "inlet",
									"numinlets" : 0,
									"numoutlets" : 1,
									"outlettype" : [ "signal" ],
									"patching_rect" : [ 32.0, 58.0, 25.0, 25.0 ],
									"id" : "obj-12",
									"comment" : "signal in"
								}

							}
, 							{
								"box" : 								{
									"maxclass" : "comment",
									"text" : "doppler shift",
									"fontname" : "Verdana",
									"numinlets" : 1,
									"numoutlets" : 0,
									"fontsize" : 10.0,
									"patching_rect" : [ 23.0, 22.0, 73.0, 19.0 ],
									"id" : "obj-13"
								}

							}
, 							{
								"box" : 								{
									"maxclass" : "comment",
									"text" : "signal in",
									"fontname" : "Verdana",
									"numinlets" : 1,
									"numoutlets" : 0,
									"fontsize" : 10.0,
									"patching_rect" : [ 59.0, 59.0, 52.0, 19.0 ],
									"id" : "obj-14"
								}

							}
, 							{
								"box" : 								{
									"maxclass" : "comment",
									"text" : "aed coordinate input",
									"fontname" : "Verdana",
									"numinlets" : 1,
									"numoutlets" : 0,
									"fontsize" : 10.0,
									"patching_rect" : [ 139.0, 92.0, 114.0, 19.0 ],
									"id" : "obj-15"
								}

							}
, 							{
								"box" : 								{
									"maxclass" : "comment",
									"text" : "speed of sound in dry air at 20 °C: 343.8 m/s",
									"fontname" : "Verdana",
									"numinlets" : 1,
									"numoutlets" : 0,
									"fontsize" : 10.0,
									"patching_rect" : [ 175.0, 176.0, 242.0, 19.0 ],
									"id" : "obj-16"
								}

							}
 ],
						"lines" : [ 							{
								"patchline" : 								{
									"source" : [ "obj-12", 0 ],
									"destination" : [ "obj-4", 0 ],
									"hidden" : 0,
									"midpoints" : [  ]
								}

							}
, 							{
								"patchline" : 								{
									"source" : [ "obj-1", 0 ],
									"destination" : [ "obj-3", 0 ],
									"hidden" : 0,
									"midpoints" : [ 121.5, 251.0, 41.5, 251.0 ]
								}

							}
, 							{
								"patchline" : 								{
									"source" : [ "obj-4", 0 ],
									"destination" : [ "obj-3", 0 ],
									"hidden" : 0,
									"midpoints" : [  ]
								}

							}
, 							{
								"patchline" : 								{
									"source" : [ "obj-3", 0 ],
									"destination" : [ "obj-11", 0 ],
									"hidden" : 0,
									"midpoints" : [  ]
								}

							}
, 							{
								"patchline" : 								{
									"source" : [ "obj-8", 0 ],
									"destination" : [ "obj-7", 0 ],
									"hidden" : 0,
									"midpoints" : [  ]
								}

							}
, 							{
								"patchline" : 								{
									"source" : [ "obj-7", 0 ],
									"destination" : [ "obj-9", 0 ],
									"hidden" : 0,
									"midpoints" : [  ]
								}

							}
, 							{
								"patchline" : 								{
									"source" : [ "obj-9", 0 ],
									"destination" : [ "obj-10", 0 ],
									"hidden" : 0,
									"midpoints" : [  ]
								}

							}
, 							{
								"patchline" : 								{
									"source" : [ "obj-10", 0 ],
									"destination" : [ "obj-2", 0 ],
									"hidden" : 0,
									"midpoints" : [  ]
								}

							}
, 							{
								"patchline" : 								{
									"source" : [ "obj-2", 0 ],
									"destination" : [ "obj-1", 0 ],
									"hidden" : 0,
									"midpoints" : [  ]
								}

							}
, 							{
								"patchline" : 								{
									"source" : [ "obj-6", 0 ],
									"destination" : [ "obj-9", 1 ],
									"hidden" : 0,
									"midpoints" : [ 268.5, 148.0, 135.0, 148.0 ]
								}

							}
 ]
					}
,
					"saved_object_attributes" : 					{
						"fontname" : "Arial",
						"globalpatchername" : "",
						"default_fontsize" : 11.0,
						"fontface" : 0,
						"fontsize" : 11.0,
						"default_fontface" : 0,
						"default_fontname" : "Arial"
					}

				}

			}
, 			{
				"box" : 				{
					"maxclass" : "message",
					"text" : "stop",
					"fontname" : "Verdana",
					"numinlets" : 2,
					"numoutlets" : 1,
					"fontsize" : 10.0,
					"outlettype" : [ "" ],
					"patching_rect" : [ 735.117188, 596.168579, 32.0, 17.0 ],
					"id" : "obj-10"
				}

			}
, 			{
				"box" : 				{
					"maxclass" : "message",
					"text" : "startwindow",
					"fontname" : "Verdana",
					"numinlets" : 2,
					"numoutlets" : 1,
					"fontsize" : 10.0,
					"outlettype" : [ "" ],
					"patching_rect" : [ 656.499451, 596.168579, 75.0, 17.0 ],
					"id" : "obj-11"
				}

			}
, 			{
				"box" : 				{
					"maxclass" : "meter~",
					"numleds" : 18,
					"numinlets" : 1,
					"hotcolor" : [ 0.811765, 0.356863, 0.635294, 1.0 ],
					"numoutlets" : 1,
					"tepidcolor" : [ 0.270588, 0.694118, 0.898039, 1.0 ],
					"coldcolor" : [ 0.552941, 1.0, 0.803922, 1.0 ],
					"overloadcolor" : [ 1.0, 0.498039, 0.0, 1.0 ],
					"outlettype" : [ "float" ],
					"bgcolor" : [ 0.0, 0.0, 0.25098, 1.0 ],
					"patching_rect" : [ 794.365356, 197.942535, 14.0, 74.0 ],
					"id" : "obj-12",
					"ntepidleds" : 5,
					"warmcolor" : [ 0.388235, 0.168627, 1.0, 1.0 ]
				}

			}
, 			{
				"box" : 				{
					"maxclass" : "meter~",
					"numleds" : 18,
					"numinlets" : 1,
					"hotcolor" : [ 0.811765, 0.356863, 0.635294, 1.0 ],
					"numoutlets" : 1,
					"tepidcolor" : [ 0.270588, 0.694118, 0.898039, 1.0 ],
					"coldcolor" : [ 0.552941, 1.0, 0.803922, 1.0 ],
					"overloadcolor" : [ 1.0, 0.498039, 0.0, 1.0 ],
					"outlettype" : [ "float" ],
					"bgcolor" : [ 0.0, 0.0, 0.25098, 1.0 ],
					"patching_rect" : [ 1056.090454, 494.900391, 12.0, 110.0 ],
					"id" : "obj-13",
					"ntepidleds" : 5,
					"warmcolor" : [ 0.388235, 0.168627, 1.0, 1.0 ]
				}

			}
, 			{
				"box" : 				{
					"maxclass" : "meter~",
					"numleds" : 18,
					"numinlets" : 1,
					"hotcolor" : [ 0.811765, 0.356863, 0.635294, 1.0 ],
					"numoutlets" : 1,
					"tepidcolor" : [ 0.270588, 0.694118, 0.898039, 1.0 ],
					"coldcolor" : [ 0.552941, 1.0, 0.803922, 1.0 ],
					"overloadcolor" : [ 1.0, 0.498039, 0.0, 1.0 ],
					"outlettype" : [ "float" ],
					"bgcolor" : [ 0.0, 0.0, 0.25098, 1.0 ],
					"patching_rect" : [ 1019.129761, 494.900391, 12.0, 110.0 ],
					"id" : "obj-14",
					"ntepidleds" : 5,
					"warmcolor" : [ 0.388235, 0.168627, 1.0, 1.0 ]
				}

			}
, 			{
				"box" : 				{
					"maxclass" : "meter~",
					"numleds" : 18,
					"numinlets" : 1,
					"hotcolor" : [ 0.811765, 0.356863, 0.635294, 1.0 ],
					"numoutlets" : 1,
					"tepidcolor" : [ 0.270588, 0.694118, 0.898039, 1.0 ],
					"coldcolor" : [ 0.552941, 1.0, 0.803922, 1.0 ],
					"overloadcolor" : [ 1.0, 0.498039, 0.0, 1.0 ],
					"outlettype" : [ "float" ],
					"bgcolor" : [ 0.0, 0.0, 0.25098, 1.0 ],
					"patching_rect" : [ 982.169006, 494.900391, 12.0, 110.0 ],
					"id" : "obj-15",
					"ntepidleds" : 5,
					"warmcolor" : [ 0.388235, 0.168627, 1.0, 1.0 ]
				}

			}
, 			{
				"box" : 				{
					"maxclass" : "meter~",
					"numleds" : 18,
					"numinlets" : 1,
					"hotcolor" : [ 0.811765, 0.356863, 0.635294, 1.0 ],
					"numoutlets" : 1,
					"tepidcolor" : [ 0.270588, 0.694118, 0.898039, 1.0 ],
					"coldcolor" : [ 0.552941, 1.0, 0.803922, 1.0 ],
					"overloadcolor" : [ 1.0, 0.498039, 0.0, 1.0 ],
					"outlettype" : [ "float" ],
					"bgcolor" : [ 0.0, 0.0, 0.25098, 1.0 ],
					"patching_rect" : [ 946.208313, 494.900391, 12.0, 110.0 ],
					"id" : "obj-16",
					"ntepidleds" : 5,
					"warmcolor" : [ 0.388235, 0.168627, 1.0, 1.0 ]
				}

			}
, 			{
				"box" : 				{
					"maxclass" : "meter~",
					"numleds" : 18,
					"numinlets" : 1,
					"hotcolor" : [ 0.811765, 0.356863, 0.635294, 1.0 ],
					"numoutlets" : 1,
					"tepidcolor" : [ 0.270588, 0.694118, 0.898039, 1.0 ],
					"coldcolor" : [ 0.552941, 1.0, 0.803922, 1.0 ],
					"overloadcolor" : [ 1.0, 0.498039, 0.0, 1.0 ],
					"outlettype" : [ "float" ],
					"bgcolor" : [ 0.0, 0.0, 0.25098, 1.0 ],
					"patching_rect" : [ 909.247559, 494.900391, 12.0, 110.0 ],
					"id" : "obj-17",
					"ntepidleds" : 5,
					"warmcolor" : [ 0.388235, 0.168627, 1.0, 1.0 ]
				}

			}
, 			{
				"box" : 				{
					"maxclass" : "meter~",
					"numleds" : 18,
					"numinlets" : 1,
					"hotcolor" : [ 0.811765, 0.356863, 0.635294, 1.0 ],
					"numoutlets" : 1,
					"tepidcolor" : [ 0.270588, 0.694118, 0.898039, 1.0 ],
					"coldcolor" : [ 0.552941, 1.0, 0.803922, 1.0 ],
					"overloadcolor" : [ 1.0, 0.498039, 0.0, 1.0 ],
					"outlettype" : [ "float" ],
					"bgcolor" : [ 0.0, 0.0, 0.25098, 1.0 ],
					"patching_rect" : [ 872.286804, 494.900391, 12.0, 110.0 ],
					"id" : "obj-18",
					"ntepidleds" : 5,
					"warmcolor" : [ 0.388235, 0.168627, 1.0, 1.0 ]
				}

			}
, 			{
				"box" : 				{
					"maxclass" : "meter~",
					"numleds" : 18,
					"numinlets" : 1,
					"hotcolor" : [ 0.811765, 0.356863, 0.635294, 1.0 ],
					"numoutlets" : 1,
					"tepidcolor" : [ 0.270588, 0.694118, 0.898039, 1.0 ],
					"coldcolor" : [ 0.552941, 1.0, 0.803922, 1.0 ],
					"overloadcolor" : [ 1.0, 0.498039, 0.0, 1.0 ],
					"outlettype" : [ "float" ],
					"bgcolor" : [ 0.0, 0.0, 0.25098, 1.0 ],
					"patching_rect" : [ 835.326111, 494.900391, 12.0, 110.0 ],
					"id" : "obj-19",
					"ntepidleds" : 5,
					"warmcolor" : [ 0.388235, 0.168627, 1.0, 1.0 ]
				}

			}
, 			{
				"box" : 				{
					"maxclass" : "meter~",
					"numleds" : 18,
					"numinlets" : 1,
					"hotcolor" : [ 0.811765, 0.356863, 0.635294, 1.0 ],
					"numoutlets" : 1,
					"tepidcolor" : [ 0.270588, 0.694118, 0.898039, 1.0 ],
					"coldcolor" : [ 0.552941, 1.0, 0.803922, 1.0 ],
					"overloadcolor" : [ 1.0, 0.498039, 0.0, 1.0 ],
					"outlettype" : [ "float" ],
					"bgcolor" : [ 0.0, 0.0, 0.25098, 1.0 ],
					"patching_rect" : [ 798.365356, 494.900391, 12.0, 110.0 ],
					"id" : "obj-20",
					"ntepidleds" : 5,
					"warmcolor" : [ 0.388235, 0.168627, 1.0, 1.0 ]
				}

			}
, 			{
				"box" : 				{
					"maxclass" : "newobj",
					"text" : "dac~ 1 2 3 4 5 6 7 8",
					"fontname" : "Verdana",
					"numinlets" : 8,
					"numoutlets" : 0,
					"fontsize" : 10.0,
					"patching_rect" : [ 784.110901, 619.180054, 276.0, 19.0 ],
					"id" : "obj-21"
				}

			}
, 			{
				"box" : 				{
					"maxclass" : "newobj",
					"text" : "ambidecode~ 3 8",
					"fontname" : "Verdana",
					"numinlets" : 16,
					"numoutlets" : 8,
					"fontsize" : 10.0,
					"outlettype" : [ "signal", "signal", "signal", "signal", "signal", "signal", "signal", "signal" ],
					"patching_rect" : [ 784.110901, 468.601532, 277.0, 19.0 ],
					"id" : "obj-22",
					"saved_object_attributes" : 					{
						"orderweight" : [ 1.0, 0.6, 0.2, 0.028571 ],
						"gain" : 0.5,
						"order" : 3,
						"coord_system" : 0,
						"aed_scale" : 1.0,
						"active" : [ 1, 1, 1, 1, 1, 1, 1, 1 ],
						"xyz_scale" : 1.0,
						"coord_angles" : 0,
						"type" : 1
					}

				}

			}
, 			{
				"box" : 				{
					"maxclass" : "newobj",
					"text" : "sfplay~",
					"fontname" : "Verdana",
					"numinlets" : 2,
					"numoutlets" : 2,
					"fontsize" : 10.0,
					"outlettype" : [ "signal", "bang" ],
					"patching_rect" : [ 784.110901, 173.835251, 49.0, 19.0 ],
					"id" : "obj-23",
					"save" : [ "#N", "sfplay~", "", 1, 120960, 0, "", ";" ]
				}

			}
, 			{
				"box" : 				{
					"maxclass" : "newobj",
					"text" : "p absorption",
					"fontname" : "Verdana",
					"numinlets" : 2,
					"numoutlets" : 1,
					"fontsize" : 10.0,
					"outlettype" : [ "signal" ],
					"patching_rect" : [ 784.110901, 340.394623, 73.0, 19.0 ],
					"id" : "obj-24",
					"patcher" : 					{
						"fileversion" : 1,
						"rect" : [ 4.0, 407.0, 316.0, 331.0 ],
						"bglocked" : 0,
						"defrect" : [ 4.0, 407.0, 316.0, 331.0 ],
						"openrect" : [ 0.0, 0.0, 0.0, 0.0 ],
						"openinpresentation" : 0,
						"default_fontsize" : 11.0,
						"default_fontface" : 0,
						"default_fontname" : "Arial",
						"gridonopen" : 0,
						"gridsize" : [ 15.0, 15.0 ],
						"gridsnaponopen" : 0,
						"toolbarvisible" : 1,
						"boxanimatetime" : 200,
						"imprint" : 0,
						"enablehscroll" : 1,
						"enablevscroll" : 1,
						"devicewidth" : 0.0,
						"boxes" : [ 							{
								"box" : 								{
									"maxclass" : "newobj",
									"text" : "clip 0. 1.",
									"fontname" : "Verdana",
									"numinlets" : 3,
									"numoutlets" : 1,
									"fontsize" : 10.0,
									"outlettype" : [ "" ],
									"patching_rect" : [ 63.0, 119.0, 55.0, 19.0 ],
									"id" : "obj-1"
								}

							}
, 							{
								"box" : 								{
									"maxclass" : "newobj",
									"text" : "zl nth 3",
									"fontname" : "Verdana",
									"numinlets" : 2,
									"numoutlets" : 2,
									"fontsize" : 10.0,
									"outlettype" : [ "", "" ],
									"patching_rect" : [ 63.0, 97.0, 49.0, 19.0 ],
									"id" : "obj-2"
								}

							}
, 							{
								"box" : 								{
									"maxclass" : "newobj",
									"text" : "t 1 1",
									"fontname" : "Verdana",
									"numinlets" : 1,
									"numoutlets" : 2,
									"fontsize" : 10.0,
									"outlettype" : [ "int", "int" ],
									"patching_rect" : [ 109.0, 215.0, 38.0, 19.0 ],
									"id" : "obj-3"
								}

							}
, 							{
								"box" : 								{
									"maxclass" : "inlet",
									"numinlets" : 0,
									"numoutlets" : 1,
									"outlettype" : [ "" ],
									"patching_rect" : [ 63.0, 68.0, 25.0, 25.0 ],
									"id" : "obj-4",
									"comment" : "aed coordinate triplet"
								}

							}
, 							{
								"box" : 								{
									"maxclass" : "newobj",
									"text" : "loadbang",
									"fontname" : "Verdana",
									"numinlets" : 1,
									"numoutlets" : 1,
									"fontsize" : 10.0,
									"outlettype" : [ "bang" ],
									"patching_rect" : [ 109.0, 193.0, 57.0, 19.0 ],
									"id" : "obj-5"
								}

							}
, 							{
								"box" : 								{
									"maxclass" : "newobj",
									"text" : "filtercoeff~ lowpass",
									"fontname" : "Verdana",
									"numinlets" : 3,
									"numoutlets" : 5,
									"fontsize" : 10.0,
									"outlettype" : [ "signal", "signal", "signal", "signal", "signal" ],
									"patching_rect" : [ 63.0, 238.0, 111.0, 19.0 ],
									"id" : "obj-6"
								}

							}
, 							{
								"box" : 								{
									"maxclass" : "newobj",
									"text" : "biquad~",
									"fontname" : "Verdana",
									"numinlets" : 6,
									"numoutlets" : 1,
									"fontsize" : 10.0,
									"outlettype" : [ "signal" ],
									"patching_rect" : [ 40.0, 267.0, 134.0, 19.0 ],
									"id" : "obj-7"
								}

							}
, 							{
								"box" : 								{
									"maxclass" : "newobj",
									"text" : "* 17000.",
									"fontname" : "Verdana",
									"numinlets" : 2,
									"numoutlets" : 1,
									"fontsize" : 10.0,
									"outlettype" : [ "float" ],
									"patching_rect" : [ 63.0, 140.0, 57.0, 19.0 ],
									"id" : "obj-8"
								}

							}
, 							{
								"box" : 								{
									"maxclass" : "newobj",
									"text" : "!- 18000.",
									"fontname" : "Verdana",
									"numinlets" : 2,
									"numoutlets" : 1,
									"fontsize" : 10.0,
									"outlettype" : [ "float" ],
									"patching_rect" : [ 63.0, 161.0, 59.0, 19.0 ],
									"id" : "obj-9"
								}

							}
, 							{
								"box" : 								{
									"maxclass" : "outlet",
									"numinlets" : 1,
									"numoutlets" : 0,
									"patching_rect" : [ 40.0, 292.0, 25.0, 25.0 ],
									"id" : "obj-10",
									"comment" : "filtered signal"
								}

							}
, 							{
								"box" : 								{
									"maxclass" : "inlet",
									"numinlets" : 0,
									"numoutlets" : 1,
									"outlettype" : [ "signal" ],
									"patching_rect" : [ 40.0, 36.0, 25.0, 25.0 ],
									"id" : "obj-11",
									"comment" : "signal in"
								}

							}
, 							{
								"box" : 								{
									"maxclass" : "comment",
									"text" : "high-frequency absorption by air as function of distance",
									"fontname" : "Verdana",
									"numinlets" : 1,
									"numoutlets" : 0,
									"fontsize" : 10.0,
									"patching_rect" : [ 15.0, 6.0, 293.0, 19.0 ],
									"id" : "obj-12"
								}

							}
, 							{
								"box" : 								{
									"maxclass" : "comment",
									"text" : "signal in",
									"fontname" : "Verdana",
									"numinlets" : 1,
									"numoutlets" : 0,
									"fontsize" : 10.0,
									"patching_rect" : [ 67.0, 39.0, 53.0, 19.0 ],
									"id" : "obj-13"
								}

							}
, 							{
								"box" : 								{
									"maxclass" : "comment",
									"text" : "aed coordinate input",
									"fontname" : "Verdana",
									"numinlets" : 1,
									"numoutlets" : 0,
									"fontsize" : 10.0,
									"patching_rect" : [ 91.0, 71.0, 115.0, 19.0 ],
									"id" : "obj-14"
								}

							}
 ],
						"lines" : [ 							{
								"patchline" : 								{
									"source" : [ "obj-11", 0 ],
									"destination" : [ "obj-7", 0 ],
									"hidden" : 0,
									"midpoints" : [  ]
								}

							}
, 							{
								"patchline" : 								{
									"source" : [ "obj-7", 0 ],
									"destination" : [ "obj-10", 0 ],
									"hidden" : 0,
									"midpoints" : [  ]
								}

							}
, 							{
								"patchline" : 								{
									"source" : [ "obj-4", 0 ],
									"destination" : [ "obj-2", 0 ],
									"hidden" : 0,
									"midpoints" : [  ]
								}

							}
, 							{
								"patchline" : 								{
									"source" : [ "obj-9", 0 ],
									"destination" : [ "obj-6", 0 ],
									"hidden" : 0,
									"midpoints" : [  ]
								}

							}
, 							{
								"patchline" : 								{
									"source" : [ "obj-6", 0 ],
									"destination" : [ "obj-7", 1 ],
									"hidden" : 0,
									"midpoints" : [  ]
								}

							}
, 							{
								"patchline" : 								{
									"source" : [ "obj-6", 1 ],
									"destination" : [ "obj-7", 2 ],
									"hidden" : 0,
									"midpoints" : [  ]
								}

							}
, 							{
								"patchline" : 								{
									"source" : [ "obj-6", 2 ],
									"destination" : [ "obj-7", 3 ],
									"hidden" : 0,
									"midpoints" : [  ]
								}

							}
, 							{
								"patchline" : 								{
									"source" : [ "obj-5", 0 ],
									"destination" : [ "obj-3", 0 ],
									"hidden" : 0,
									"midpoints" : [  ]
								}

							}
, 							{
								"patchline" : 								{
									"source" : [ "obj-3", 0 ],
									"destination" : [ "obj-6", 1 ],
									"hidden" : 0,
									"midpoints" : [  ]
								}

							}
, 							{
								"patchline" : 								{
									"source" : [ "obj-6", 3 ],
									"destination" : [ "obj-7", 4 ],
									"hidden" : 0,
									"midpoints" : [  ]
								}

							}
, 							{
								"patchline" : 								{
									"source" : [ "obj-6", 4 ],
									"destination" : [ "obj-7", 5 ],
									"hidden" : 0,
									"midpoints" : [  ]
								}

							}
, 							{
								"patchline" : 								{
									"source" : [ "obj-3", 1 ],
									"destination" : [ "obj-6", 2 ],
									"hidden" : 0,
									"midpoints" : [  ]
								}

							}
, 							{
								"patchline" : 								{
									"source" : [ "obj-8", 0 ],
									"destination" : [ "obj-9", 0 ],
									"hidden" : 0,
									"midpoints" : [  ]
								}

							}
, 							{
								"patchline" : 								{
									"source" : [ "obj-1", 0 ],
									"destination" : [ "obj-8", 0 ],
									"hidden" : 0,
									"midpoints" : [  ]
								}

							}
, 							{
								"patchline" : 								{
									"source" : [ "obj-2", 0 ],
									"destination" : [ "obj-1", 0 ],
									"hidden" : 0,
									"midpoints" : [  ]
								}

							}
 ]
					}
,
					"saved_object_attributes" : 					{
						"fontname" : "Arial",
						"globalpatchername" : "",
						"default_fontsize" : 11.0,
						"fontface" : 0,
						"fontsize" : 11.0,
						"default_fontface" : 0,
						"default_fontname" : "Arial"
					}

				}

			}
, 			{
				"box" : 				{
					"maxclass" : "newobj",
					"text" : "ambiencode~ 3 1",
					"fontname" : "Verdana",
					"numinlets" : 1,
					"numoutlets" : 16,
					"fontsize" : 10.0,
					"outlettype" : [ "signal", "signal", "signal", "signal", "signal", "signal", "signal", "signal", "signal", "signal", "signal", "signal", "signal", "signal", "signal", "signal" ],
					"patching_rect" : [ 784.110901, 400.662842, 277.5, 19.0 ],
					"id" : "obj-25",
					"saved_object_attributes" : 					{
						"center_size" : 1.0,
						"gain" : 1.0,
						"order" : 3,
						"coord_system" : 0,
						"center_curve" : 0.2,
						"distance_mode" : 1,
						"aed_scale" : 10.0,
						"interpolation" : 1,
						"db_unit" : 1.5,
						"active" : [ 1 ],
						"xyz_scale" : 10.0,
						"dist_att" : 1.0,
						"coord_angles" : 0,
						"center_att_db" : 6.0,
						"type" : 1
					}

				}

			}
, 			{
				"box" : 				{
					"maxclass" : "comment",
					"text" : "record a trajectory",
					"fontname" : "Verdana",
					"numinlets" : 1,
					"numoutlets" : 0,
					"fontsize" : 10.0,
					"patching_rect" : [ 53.763462, 234.103455, 109.0, 19.0 ],
					"id" : "obj-27"
				}

			}
, 			{
				"box" : 				{
					"maxclass" : "comment",
					"text" : "trajectory data to a file",
					"fontname" : "Verdana",
					"numinlets" : 1,
					"numoutlets" : 0,
					"fontsize" : 10.0,
					"patching_rect" : [ 53.763462, 536.540222, 131.0, 19.0 ],
					"id" : "obj-28"
				}

			}
, 			{
				"box" : 				{
					"maxclass" : "comment",
					"text" : "finally write the",
					"fontname" : "Verdana",
					"numinlets" : 1,
					"numoutlets" : 0,
					"fontsize" : 10.0,
					"patching_rect" : [ 53.763462, 523.390808, 93.0, 19.0 ],
					"id" : "obj-29"
				}

			}
, 			{
				"box" : 				{
					"maxclass" : "comment",
					"text" : "• 7.",
					"fontname" : "Verdana",
					"numinlets" : 1,
					"numoutlets" : 0,
					"fontsize" : 10.0,
					"patching_rect" : [ 24.139387, 523.390808, 27.0, 19.0 ],
					"id" : "obj-30"
				}

			}
, 			{
				"box" : 				{
					"maxclass" : "comment",
					"text" : "...or...",
					"fontname" : "Verdana",
					"numinlets" : 1,
					"numoutlets" : 0,
					"fontsize" : 10.0,
					"patching_rect" : [ 241.762405, 326.149414, 42.0, 19.0 ],
					"id" : "obj-31"
				}

			}
, 			{
				"box" : 				{
					"maxclass" : "comment",
					"text" : "retain shape",
					"fontname" : "Verdana",
					"numinlets" : 1,
					"numoutlets" : 0,
					"fontsize" : 10.0,
					"patching_rect" : [ 228.089752, 305.329498, 71.0, 19.0 ],
					"id" : "obj-32"
				}

			}
, 			{
				"box" : 				{
					"maxclass" : "message",
					"text" : "scale_trajectory",
					"fontname" : "Verdana",
					"numinlets" : 2,
					"numoutlets" : 1,
					"fontsize" : 10.0,
					"outlettype" : [ "" ],
					"patching_rect" : [ 297.592407, 356.831421, 92.0, 17.0 ],
					"id" : "obj-33"
				}

			}
, 			{
				"box" : 				{
					"maxclass" : "message",
					"text" : "write",
					"fontname" : "Verdana",
					"numinlets" : 2,
					"numoutlets" : 1,
					"fontsize" : 10.0,
					"outlettype" : [ "" ],
					"patching_rect" : [ 225.810989, 523.390808, 39.0, 17.0 ],
					"id" : "obj-34"
				}

			}
, 			{
				"box" : 				{
					"maxclass" : "button",
					"numinlets" : 1,
					"numoutlets" : 1,
					"outlettype" : [ "bang" ],
					"patching_rect" : [ 218.835266, 207.804596, 15.0, 15.0 ],
					"id" : "obj-35"
				}

			}
, 			{
				"box" : 				{
					"maxclass" : "newobj",
					"text" : "p spiral 64",
					"fontname" : "Verdana",
					"numinlets" : 1,
					"numoutlets" : 1,
					"fontsize" : 10.0,
					"outlettype" : [ "" ],
					"patching_rect" : [ 217.835266, 226.432953, 66.0, 19.0 ],
					"id" : "obj-36",
					"patcher" : 					{
						"fileversion" : 1,
						"rect" : [ 635.0, 44.0, 593.0, 602.0 ],
						"bglocked" : 0,
						"defrect" : [ 635.0, 44.0, 593.0, 602.0 ],
						"openrect" : [ 0.0, 0.0, 0.0, 0.0 ],
						"openinpresentation" : 0,
						"default_fontsize" : 10.0,
						"default_fontface" : 0,
						"default_fontname" : "Verdana",
						"gridonopen" : 0,
						"gridsize" : [ 12.0, 12.0 ],
						"gridsnaponopen" : 0,
						"toolbarvisible" : 1,
						"boxanimatetime" : 200,
						"imprint" : 0,
						"enablehscroll" : 1,
						"enablevscroll" : 1,
						"devicewidth" : 0.0,
						"boxes" : [ 							{
								"box" : 								{
									"maxclass" : "comment",
									"text" : "numbers of steps",
									"fontname" : "Verdana",
									"numinlets" : 1,
									"numoutlets" : 0,
									"fontsize" : 10.0,
									"patching_rect" : [ 261.0, 134.0, 98.0, 19.0 ],
									"id" : "obj-1"
								}

							}
, 							{
								"box" : 								{
									"maxclass" : "newobj",
									"text" : "zl slice 1",
									"fontname" : "Verdana",
									"numinlets" : 2,
									"numoutlets" : 2,
									"fontsize" : 10.0,
									"outlettype" : [ "", "" ],
									"patching_rect" : [ 327.0, 109.0, 54.0, 19.0 ],
									"id" : "obj-2"
								}

							}
, 							{
								"box" : 								{
									"maxclass" : "newobj",
									"text" : "patcherargs",
									"fontname" : "Verdana",
									"numinlets" : 1,
									"numoutlets" : 2,
									"fontsize" : 10.0,
									"outlettype" : [ "", "" ],
									"patching_rect" : [ 327.0, 87.0, 70.0, 19.0 ],
									"id" : "obj-3"
								}

							}
, 							{
								"box" : 								{
									"maxclass" : "number",
									"fontname" : "Verdana",
									"numinlets" : 1,
									"numoutlets" : 2,
									"htextcolor" : [ 0.870588, 0.870588, 0.870588, 1.0 ],
									"fontsize" : 10.0,
									"outlettype" : [ "int", "bang" ],
									"triscale" : 0.9,
									"bgcolor" : [ 0.866667, 0.866667, 0.866667, 1.0 ],
									"patching_rect" : [ 169.0, 308.0, 37.0, 19.0 ],
									"id" : "obj-4"
								}

							}
, 							{
								"box" : 								{
									"maxclass" : "newobj",
									"text" : "!/ 5000",
									"fontname" : "Verdana",
									"numinlets" : 2,
									"numoutlets" : 1,
									"fontsize" : 10.0,
									"outlettype" : [ "int" ],
									"patching_rect" : [ 169.0, 278.0, 48.0, 19.0 ],
									"id" : "obj-5"
								}

							}
, 							{
								"box" : 								{
									"maxclass" : "number",
									"fontname" : "Verdana",
									"numinlets" : 1,
									"numoutlets" : 2,
									"htextcolor" : [ 0.870588, 0.870588, 0.870588, 1.0 ],
									"fontsize" : 10.0,
									"outlettype" : [ "int", "bang" ],
									"triscale" : 0.9,
									"bgcolor" : [ 0.866667, 0.866667, 0.866667, 1.0 ],
									"patching_rect" : [ 362.0, 134.0, 37.0, 19.0 ],
									"id" : "obj-6"
								}

							}
, 							{
								"box" : 								{
									"maxclass" : "inlet",
									"numinlets" : 0,
									"numoutlets" : 1,
									"outlettype" : [ "bang" ],
									"patching_rect" : [ 81.0, 66.0, 25.0, 25.0 ],
									"id" : "obj-7",
									"comment" : ""
								}

							}
, 							{
								"box" : 								{
									"maxclass" : "newobj",
									"text" : "b 3",
									"fontname" : "Verdana",
									"numinlets" : 1,
									"numoutlets" : 3,
									"fontsize" : 10.0,
									"outlettype" : [ "bang", "bang", "bang" ],
									"patching_rect" : [ 81.0, 160.0, 46.0, 19.0 ],
									"id" : "obj-8"
								}

							}
, 							{
								"box" : 								{
									"maxclass" : "message",
									"text" : "close",
									"fontname" : "Verdana",
									"numinlets" : 2,
									"numoutlets" : 1,
									"fontsize" : 10.0,
									"outlettype" : [ "" ],
									"patching_rect" : [ 81.0, 202.0, 36.0, 17.0 ],
									"id" : "obj-9"
								}

							}
, 							{
								"box" : 								{
									"maxclass" : "message",
									"text" : "record",
									"fontname" : "Verdana",
									"numinlets" : 2,
									"numoutlets" : 1,
									"fontsize" : 10.0,
									"outlettype" : [ "" ],
									"patching_rect" : [ 520.0, 207.0, 43.0, 17.0 ],
									"id" : "obj-10"
								}

							}
, 							{
								"box" : 								{
									"maxclass" : "outlet",
									"numinlets" : 1,
									"numoutlets" : 0,
									"patching_rect" : [ 155.0, 535.0, 25.0, 25.0 ],
									"id" : "obj-11",
									"comment" : ""
								}

							}
, 							{
								"box" : 								{
									"maxclass" : "newobj",
									"text" : "prepend xyz",
									"fontname" : "Verdana",
									"numinlets" : 1,
									"numoutlets" : 1,
									"fontsize" : 10.0,
									"outlettype" : [ "" ],
									"patching_rect" : [ 155.0, 456.0, 72.0, 19.0 ],
									"id" : "obj-12"
								}

							}
, 							{
								"box" : 								{
									"maxclass" : "newobj",
									"text" : "- 1",
									"fontname" : "Verdana",
									"numinlets" : 2,
									"numoutlets" : 1,
									"fontsize" : 10.0,
									"outlettype" : [ "int" ],
									"patching_rect" : [ 155.0, 228.0, 32.5, 19.0 ],
									"id" : "obj-13"
								}

							}
, 							{
								"box" : 								{
									"maxclass" : "newobj",
									"text" : "* 20",
									"fontname" : "Verdana",
									"numinlets" : 2,
									"numoutlets" : 1,
									"fontsize" : 10.0,
									"outlettype" : [ "int" ],
									"patching_rect" : [ 155.0, 335.0, 33.0, 19.0 ],
									"id" : "obj-14"
								}

							}
, 							{
								"box" : 								{
									"maxclass" : "newobj",
									"text" : "pack 0 0. 0. 1.",
									"fontname" : "Verdana",
									"numinlets" : 4,
									"numoutlets" : 1,
									"fontsize" : 10.0,
									"outlettype" : [ "" ],
									"patching_rect" : [ 155.0, 431.0, 84.0, 19.0 ],
									"id" : "obj-15"
								}

							}
, 							{
								"box" : 								{
									"maxclass" : "newobj",
									"text" : "/ 180.",
									"fontname" : "Verdana",
									"numinlets" : 2,
									"numoutlets" : 1,
									"fontsize" : 10.0,
									"outlettype" : [ "float" ],
									"patching_rect" : [ 418.0, 329.0, 41.0, 19.0 ],
									"id" : "obj-16"
								}

							}
, 							{
								"box" : 								{
									"maxclass" : "newobj",
									"text" : "3.141593",
									"fontname" : "Verdana",
									"numinlets" : 2,
									"numoutlets" : 1,
									"fontsize" : 10.0,
									"outlettype" : [ "float" ],
									"patching_rect" : [ 418.0, 307.0, 59.0, 19.0 ],
									"id" : "obj-17"
								}

							}
, 							{
								"box" : 								{
									"maxclass" : "newobj",
									"text" : "loadbang",
									"fontname" : "Verdana",
									"numinlets" : 1,
									"numoutlets" : 1,
									"fontsize" : 10.0,
									"outlettype" : [ "bang" ],
									"patching_rect" : [ 418.0, 58.0, 56.0, 19.0 ],
									"id" : "obj-18"
								}

							}
, 							{
								"box" : 								{
									"maxclass" : "newobj",
									"text" : "* 1.",
									"fontname" : "Verdana",
									"numinlets" : 2,
									"numoutlets" : 1,
									"fontsize" : 10.0,
									"outlettype" : [ "float" ],
									"patching_rect" : [ 229.0, 359.0, 32.5, 19.0 ],
									"id" : "obj-19"
								}

							}
, 							{
								"box" : 								{
									"maxclass" : "newobj",
									"text" : "cos",
									"fontname" : "Verdana",
									"numinlets" : 1,
									"numoutlets" : 1,
									"fontsize" : 10.0,
									"outlettype" : [ "float" ],
									"patching_rect" : [ 256.0, 388.0, 27.0, 19.0 ],
									"id" : "obj-20"
								}

							}
, 							{
								"box" : 								{
									"maxclass" : "newobj",
									"text" : "sin",
									"fontname" : "Verdana",
									"numinlets" : 1,
									"numoutlets" : 1,
									"fontsize" : 10.0,
									"outlettype" : [ "float" ],
									"patching_rect" : [ 229.0, 388.0, 25.0, 19.0 ],
									"id" : "obj-21"
								}

							}
, 							{
								"box" : 								{
									"maxclass" : "flonum",
									"fontname" : "Verdana",
									"numinlets" : 1,
									"numoutlets" : 2,
									"htextcolor" : [ 0.870588, 0.870588, 0.870588, 1.0 ],
									"fontsize" : 10.0,
									"outlettype" : [ "float", "bang" ],
									"triscale" : 0.9,
									"bgcolor" : [ 0.866667, 0.866667, 0.866667, 1.0 ],
									"patching_rect" : [ 347.0, 308.0, 37.0, 19.0 ],
									"id" : "obj-22"
								}

							}
, 							{
								"box" : 								{
									"maxclass" : "flonum",
									"fontname" : "Verdana",
									"numinlets" : 1,
									"numoutlets" : 2,
									"htextcolor" : [ 0.870588, 0.870588, 0.870588, 1.0 ],
									"fontsize" : 10.0,
									"outlettype" : [ "float", "bang" ],
									"triscale" : 0.9,
									"bgcolor" : [ 0.866667, 0.866667, 0.866667, 1.0 ],
									"patching_rect" : [ 229.0, 308.0, 37.0, 19.0 ],
									"id" : "obj-23"
								}

							}
, 							{
								"box" : 								{
									"maxclass" : "comment",
									"text" : "degrees to radians",
									"fontname" : "Verdana",
									"numinlets" : 1,
									"numoutlets" : 0,
									"fontsize" : 10.0,
									"patching_rect" : [ 395.0, 358.0, 104.0, 19.0 ],
									"id" : "obj-24"
								}

							}
, 							{
								"box" : 								{
									"maxclass" : "newobj",
									"text" : "scale 0 200 -1. 1.",
									"fontname" : "Verdana",
									"numinlets" : 6,
									"numoutlets" : 1,
									"fontsize" : 10.0,
									"outlettype" : [ "" ],
									"patching_rect" : [ 347.0, 278.0, 100.0, 19.0 ],
									"id" : "obj-25"
								}

							}
, 							{
								"box" : 								{
									"maxclass" : "newobj",
									"text" : "scale 0 100. 0 720.",
									"fontname" : "Verdana",
									"numinlets" : 6,
									"numoutlets" : 1,
									"fontsize" : 10.0,
									"outlettype" : [ "" ],
									"patching_rect" : [ 229.0, 278.0, 108.0, 19.0 ],
									"id" : "obj-26"
								}

							}
, 							{
								"box" : 								{
									"maxclass" : "newobj",
									"text" : "uzi 200",
									"fontname" : "Verdana",
									"numinlets" : 2,
									"numoutlets" : 3,
									"fontsize" : 10.0,
									"outlettype" : [ "bang", "bang", "int" ],
									"patching_rect" : [ 127.0, 202.0, 47.0, 19.0 ],
									"id" : "obj-27"
								}

							}
 ],
						"lines" : [ 							{
								"patchline" : 								{
									"source" : [ "obj-7", 0 ],
									"destination" : [ "obj-8", 0 ],
									"hidden" : 0,
									"midpoints" : [ 90.0, 119.0 ]
								}

							}
, 							{
								"patchline" : 								{
									"source" : [ "obj-8", 0 ],
									"destination" : [ "obj-9", 0 ],
									"hidden" : 0,
									"midpoints" : [  ]
								}

							}
, 							{
								"patchline" : 								{
									"source" : [ "obj-12", 0 ],
									"destination" : [ "obj-11", 0 ],
									"hidden" : 0,
									"midpoints" : [  ]
								}

							}
, 							{
								"patchline" : 								{
									"source" : [ "obj-10", 0 ],
									"destination" : [ "obj-11", 0 ],
									"hidden" : 0,
									"midpoints" : [ 529.5, 514.0, 164.5, 514.0 ]
								}

							}
, 							{
								"patchline" : 								{
									"source" : [ "obj-9", 0 ],
									"destination" : [ "obj-11", 0 ],
									"hidden" : 0,
									"midpoints" : [ 90.5, 514.0, 164.5, 514.0 ]
								}

							}
, 							{
								"patchline" : 								{
									"source" : [ "obj-8", 1 ],
									"destination" : [ "obj-27", 0 ],
									"hidden" : 0,
									"midpoints" : [  ]
								}

							}
, 							{
								"patchline" : 								{
									"source" : [ "obj-27", 2 ],
									"destination" : [ "obj-13", 0 ],
									"hidden" : 0,
									"midpoints" : [  ]
								}

							}
, 							{
								"patchline" : 								{
									"source" : [ "obj-13", 0 ],
									"destination" : [ "obj-14", 0 ],
									"hidden" : 0,
									"midpoints" : [  ]
								}

							}
, 							{
								"patchline" : 								{
									"source" : [ "obj-14", 0 ],
									"destination" : [ "obj-15", 0 ],
									"hidden" : 0,
									"midpoints" : [  ]
								}

							}
, 							{
								"patchline" : 								{
									"source" : [ "obj-15", 0 ],
									"destination" : [ "obj-12", 0 ],
									"hidden" : 0,
									"midpoints" : [  ]
								}

							}
, 							{
								"patchline" : 								{
									"source" : [ "obj-21", 0 ],
									"destination" : [ "obj-15", 1 ],
									"hidden" : 0,
									"midpoints" : [  ]
								}

							}
, 							{
								"patchline" : 								{
									"source" : [ "obj-6", 0 ],
									"destination" : [ "obj-5", 0 ],
									"hidden" : 0,
									"color" : [ 0.6667, 0.6667, 0.6667, 1.0 ],
									"midpoints" : [ 371.5, 267.0, 178.5, 267.0 ]
								}

							}
, 							{
								"patchline" : 								{
									"source" : [ "obj-5", 0 ],
									"destination" : [ "obj-4", 0 ],
									"hidden" : 0,
									"midpoints" : [  ]
								}

							}
, 							{
								"patchline" : 								{
									"source" : [ "obj-4", 0 ],
									"destination" : [ "obj-14", 1 ],
									"hidden" : 0,
									"midpoints" : [  ]
								}

							}
, 							{
								"patchline" : 								{
									"source" : [ "obj-6", 0 ],
									"destination" : [ "obj-27", 1 ],
									"hidden" : 0,
									"color" : [ 0.6667, 0.6667, 0.6667, 1.0 ],
									"midpoints" : [ 371.5, 198.0, 164.5, 198.0 ]
								}

							}
, 							{
								"patchline" : 								{
									"source" : [ "obj-20", 0 ],
									"destination" : [ "obj-15", 2 ],
									"hidden" : 0,
									"midpoints" : [  ]
								}

							}
, 							{
								"patchline" : 								{
									"source" : [ "obj-22", 0 ],
									"destination" : [ "obj-15", 3 ],
									"hidden" : 0,
									"midpoints" : [ 356.5, 429.0, 229.5, 429.0 ]
								}

							}
, 							{
								"patchline" : 								{
									"source" : [ "obj-13", 0 ],
									"destination" : [ "obj-26", 0 ],
									"hidden" : 0,
									"midpoints" : [ 164.5, 254.0, 238.5, 254.0 ]
								}

							}
, 							{
								"patchline" : 								{
									"source" : [ "obj-26", 0 ],
									"destination" : [ "obj-23", 0 ],
									"hidden" : 0,
									"midpoints" : [  ]
								}

							}
, 							{
								"patchline" : 								{
									"source" : [ "obj-23", 0 ],
									"destination" : [ "obj-19", 0 ],
									"hidden" : 0,
									"midpoints" : [  ]
								}

							}
, 							{
								"patchline" : 								{
									"source" : [ "obj-19", 0 ],
									"destination" : [ "obj-21", 0 ],
									"hidden" : 0,
									"midpoints" : [  ]
								}

							}
, 							{
								"patchline" : 								{
									"source" : [ "obj-16", 0 ],
									"destination" : [ "obj-19", 1 ],
									"hidden" : 0,
									"midpoints" : [  ]
								}

							}
, 							{
								"patchline" : 								{
									"source" : [ "obj-19", 0 ],
									"destination" : [ "obj-20", 0 ],
									"hidden" : 0,
									"midpoints" : [  ]
								}

							}
, 							{
								"patchline" : 								{
									"source" : [ "obj-6", 0 ],
									"destination" : [ "obj-26", 2 ],
									"hidden" : 0,
									"color" : [ 0.6667, 0.6667, 0.6667, 1.0 ],
									"midpoints" : [ 371.5, 267.0, 274.100006, 267.0 ]
								}

							}
, 							{
								"patchline" : 								{
									"source" : [ "obj-18", 0 ],
									"destination" : [ "obj-3", 0 ],
									"hidden" : 0,
									"color" : [ 0.6667, 0.6667, 0.6667, 1.0 ],
									"midpoints" : [  ]
								}

							}
, 							{
								"patchline" : 								{
									"source" : [ "obj-3", 0 ],
									"destination" : [ "obj-2", 0 ],
									"hidden" : 0,
									"midpoints" : [  ]
								}

							}
, 							{
								"patchline" : 								{
									"source" : [ "obj-13", 0 ],
									"destination" : [ "obj-25", 0 ],
									"hidden" : 0,
									"midpoints" : [ 164.5, 254.0, 356.5, 254.0 ]
								}

							}
, 							{
								"patchline" : 								{
									"source" : [ "obj-25", 0 ],
									"destination" : [ "obj-22", 0 ],
									"hidden" : 0,
									"midpoints" : [  ]
								}

							}
, 							{
								"patchline" : 								{
									"source" : [ "obj-2", 1 ],
									"destination" : [ "obj-6", 0 ],
									"hidden" : 0,
									"midpoints" : [  ]
								}

							}
, 							{
								"patchline" : 								{
									"source" : [ "obj-6", 0 ],
									"destination" : [ "obj-25", 2 ],
									"hidden" : 0,
									"color" : [ 0.6667, 0.6667, 0.6667, 1.0 ],
									"midpoints" : [ 371.5, 267.0, 388.899994, 267.0 ]
								}

							}
, 							{
								"patchline" : 								{
									"source" : [ "obj-18", 0 ],
									"destination" : [ "obj-17", 0 ],
									"hidden" : 0,
									"color" : [ 0.6667, 0.6667, 0.6667, 1.0 ],
									"midpoints" : [  ]
								}

							}
, 							{
								"patchline" : 								{
									"source" : [ "obj-17", 0 ],
									"destination" : [ "obj-16", 0 ],
									"hidden" : 0,
									"midpoints" : [  ]
								}

							}
, 							{
								"patchline" : 								{
									"source" : [ "obj-8", 2 ],
									"destination" : [ "obj-10", 0 ],
									"hidden" : 0,
									"midpoints" : [ 117.5, 180.0, 529.5, 180.0 ]
								}

							}
 ]
					}
,
					"saved_object_attributes" : 					{
						"fontname" : "Verdana",
						"globalpatchername" : "",
						"default_fontsize" : 10.0,
						"fontface" : 0,
						"fontsize" : 10.0,
						"default_fontface" : 0,
						"default_fontname" : "Verdana"
					}

				}

			}
, 			{
				"box" : 				{
					"maxclass" : "comment",
					"text" : "to rotate the area",
					"fontname" : "Verdana",
					"numinlets" : 1,
					"numoutlets" : 0,
					"fontsize" : 10.0,
					"patching_rect" : [ 53.763462, 475.176239, 100.0, 19.0 ],
					"id" : "obj-37"
				}

			}
, 			{
				"box" : 				{
					"maxclass" : "comment",
					"text" : "use a second ambicontrol",
					"fontname" : "Verdana",
					"numinlets" : 1,
					"numoutlets" : 0,
					"fontsize" : 10.0,
					"patching_rect" : [ 53.763462, 462.026825, 137.0, 19.0 ],
					"id" : "obj-38"
				}

			}
, 			{
				"box" : 				{
					"maxclass" : "comment",
					"text" : "• 6.",
					"fontname" : "Verdana",
					"numinlets" : 1,
					"numoutlets" : 0,
					"fontsize" : 10.0,
					"patching_rect" : [ 24.139387, 462.026825, 27.0, 19.0 ],
					"id" : "obj-39"
				}

			}
, 			{
				"box" : 				{
					"maxclass" : "message",
					"text" : "fit_trajectory",
					"fontname" : "Verdana",
					"numinlets" : 2,
					"numoutlets" : 1,
					"fontsize" : 10.0,
					"outlettype" : [ "" ],
					"patching_rect" : [ 217.835266, 284.509583, 77.0, 17.0 ],
					"id" : "obj-40"
				}

			}
, 			{
				"box" : 				{
					"maxclass" : "comment",
					"text" : "make it visible",
					"fontname" : "Verdana",
					"numinlets" : 1,
					"numoutlets" : 0,
					"fontsize" : 10.0,
					"patching_rect" : [ 53.763462, 145.344833, 84.0, 19.0 ],
					"id" : "obj-41"
				}

			}
, 			{
				"box" : 				{
					"maxclass" : "toggle",
					"numinlets" : 1,
					"numoutlets" : 1,
					"outlettype" : [ "int" ],
					"patching_rect" : [ 226.810989, 449.973175, 15.0, 15.0 ],
					"id" : "obj-42"
				}

			}
, 			{
				"box" : 				{
					"maxclass" : "newobj",
					"text" : "ambicontrol 0. 0.5 0.125 rotate",
					"fontname" : "Verdana",
					"numinlets" : 2,
					"numoutlets" : 2,
					"fontsize" : 10.0,
					"outlettype" : [ "", "" ],
					"patching_rect" : [ 225.810989, 471.888885, 170.0, 19.0 ],
					"id" : "obj-43",
					"saved_object_attributes" : 					{
						"interval" : 100,
						"volume_color" : [ 0.0, 0.0, 0.0, 1.0 ],
						"show_volume" : 0,
						"trajectory_color" : [ 0.0, 0.0, 0.0, 0.0 ],
						"volume" : [ 2.0, 2.0, 2.0 ],
						"interpolation" : 0,
						"connect" : "",
						"trajectory_point_color" : [ 0.0, 0.0, 0.0, 0.0 ],
						"loop" : 0,
						"volume_type" : 0,
						"index" : 0,
						"pointsize" : 0.0
					}

				}

			}
, 			{
				"box" : 				{
					"maxclass" : "comment",
					"text" : "start animation",
					"fontname" : "Verdana",
					"numinlets" : 1,
					"numoutlets" : 0,
					"fontsize" : 10.0,
					"patching_rect" : [ 53.763462, 402.854401, 87.0, 19.0 ],
					"id" : "obj-44"
				}

			}
, 			{
				"box" : 				{
					"maxclass" : "comment",
					"text" : "• 5.",
					"fontname" : "Verdana",
					"numinlets" : 1,
					"numoutlets" : 0,
					"fontsize" : 10.0,
					"patching_rect" : [ 24.139387, 402.854401, 27.0, 19.0 ],
					"id" : "obj-45"
				}

			}
, 			{
				"box" : 				{
					"maxclass" : "comment",
					"text" : "to the bounding box",
					"fontname" : "Verdana",
					"numinlets" : 1,
					"numoutlets" : 0,
					"fontsize" : 10.0,
					"patching_rect" : [ 53.763462, 303.137939, 110.0, 19.0 ],
					"id" : "obj-46"
				}

			}
, 			{
				"box" : 				{
					"maxclass" : "comment",
					"text" : "scale the trajectory",
					"fontname" : "Verdana",
					"numinlets" : 1,
					"numoutlets" : 0,
					"fontsize" : 10.0,
					"patching_rect" : [ 53.763462, 291.08429, 112.0, 19.0 ],
					"id" : "obj-47"
				}

			}
, 			{
				"box" : 				{
					"maxclass" : "comment",
					"text" : "• 4.",
					"fontname" : "Verdana",
					"numinlets" : 1,
					"numoutlets" : 0,
					"fontsize" : 10.0,
					"patching_rect" : [ 24.139387, 291.08429, 27.0, 19.0 ],
					"id" : "obj-48"
				}

			}
, 			{
				"box" : 				{
					"maxclass" : "newobj",
					"text" : "loadbang",
					"hidden" : 1,
					"fontname" : "Verdana",
					"numinlets" : 1,
					"numoutlets" : 1,
					"fontsize" : 10.0,
					"outlettype" : [ "bang" ],
					"patching_rect" : [ 441.155212, 53.298851, 54.0, 19.0 ],
					"id" : "obj-49"
				}

			}
, 			{
				"box" : 				{
					"maxclass" : "message",
					"text" : "aed 1 0 0 0",
					"hidden" : 1,
					"fontname" : "Verdana",
					"numinlets" : 2,
					"numoutlets" : 1,
					"fontsize" : 10.0,
					"outlettype" : [ "" ],
					"patching_rect" : [ 441.155212, 75.214561, 68.0, 17.0 ],
					"id" : "obj-50"
				}

			}
, 			{
				"box" : 				{
					"maxclass" : "comment",
					"text" : "define an area and",
					"fontname" : "Verdana",
					"numinlets" : 1,
					"numoutlets" : 0,
					"fontsize" : 10.0,
					"patching_rect" : [ 53.763462, 133.291183, 103.0, 19.0 ],
					"id" : "obj-51"
				}

			}
, 			{
				"box" : 				{
					"maxclass" : "comment",
					"text" : "• 2.",
					"fontname" : "Verdana",
					"numinlets" : 1,
					"numoutlets" : 0,
					"fontsize" : 10.0,
					"patching_rect" : [ 24.139387, 133.291183, 27.0, 19.0 ],
					"id" : "obj-52"
				}

			}
, 			{
				"box" : 				{
					"maxclass" : "comment",
					"text" : "use an algorithm to",
					"fontname" : "Verdana",
					"numinlets" : 1,
					"numoutlets" : 0,
					"fontsize" : 10.0,
					"patching_rect" : [ 53.763462, 220.954025, 107.0, 19.0 ],
					"id" : "obj-53"
				}

			}
, 			{
				"box" : 				{
					"maxclass" : "comment",
					"text" : "• 3.",
					"fontname" : "Verdana",
					"numinlets" : 1,
					"numoutlets" : 0,
					"fontsize" : 10.0,
					"patching_rect" : [ 24.139387, 220.954025, 27.0, 19.0 ],
					"id" : "obj-54"
				}

			}
, 			{
				"box" : 				{
					"maxclass" : "ambimonitor",
					"varname" : "spiral",
					"circle_color" : [ 0.039062, 0.039062, 0.164062, 1.0 ],
					"numinlets" : 1,
					"mode" : 1,
					"coord_color" : [ 0.816406, 0.816406, 0.816406, 1.0 ],
					"line_color" : [ 0.5, 0.5, 0.5, 1.0 ],
					"numoutlets" : 3,
					"name_color" : [ 0.996094, 0.996094, 0.996094, 1.0 ],
					"presentation_rect" : [ 0.0, 0.0, 20.0, 35.0 ],
					"grid_color" : [ 0.136719, 0.136719, 0.136719, 1.0 ],
					"outlettype" : [ "", "", "" ],
					"numbers" : 1,
					"bgcolor" : [ 0.0, 0.0, 0.125, 1.0 ],
					"point_color" : [ 0.996094, 0.996094, 0.996094, 1.0 ],
					"patching_rect" : [ 441.155212, 94.938698, 250.0, 380.0 ],
					"hi_grid_color" : [ 0.746094, 0.0, 0.0, 1.0 ],
					"id" : "obj-55",
					"grid" : 1
				}

			}
, 			{
				"box" : 				{
					"maxclass" : "toggle",
					"numinlets" : 1,
					"numoutlets" : 1,
					"outlettype" : [ "int" ],
					"patching_rect" : [ 219.974655, 118.950195, 15.0, 15.0 ],
					"id" : "obj-56"
				}

			}
, 			{
				"box" : 				{
					"maxclass" : "message",
					"text" : "show_volume $1, volume_color 0.2 0.5 1. 0.5, volume 0.5 0.8 0.25, xyz 0 0. 0.5 0.125",
					"linecount" : 4,
					"fontname" : "Verdana",
					"numinlets" : 2,
					"numoutlets" : 1,
					"fontsize" : 10.0,
					"outlettype" : [ "" ],
					"patching_rect" : [ 218.974655, 137.578537, 142.0, 53.0 ],
					"id" : "obj-57"
				}

			}
, 			{
				"box" : 				{
					"maxclass" : "message",
					"text" : "loop 1, interpolation 1, start",
					"fontname" : "Verdana",
					"numinlets" : 2,
					"numoutlets" : 1,
					"fontsize" : 10.0,
					"outlettype" : [ "" ],
					"patching_rect" : [ 223.532211, 398.471252, 155.0, 17.0 ],
					"id" : "obj-58"
				}

			}
, 			{
				"box" : 				{
					"maxclass" : "message",
					"text" : "connect spiral",
					"fontname" : "Verdana",
					"numinlets" : 2,
					"numoutlets" : 1,
					"fontsize" : 10.0,
					"outlettype" : [ "" ],
					"patching_rect" : [ 191.629349, 76.310349, 81.0, 17.0 ],
					"id" : "obj-59"
				}

			}
, 			{
				"box" : 				{
					"maxclass" : "newobj",
					"text" : "ambicontrol trajectory 1",
					"fontname" : "Verdana",
					"numinlets" : 2,
					"numoutlets" : 2,
					"fontsize" : 10.0,
					"outlettype" : [ "", "" ],
					"patching_rect" : [ 191.629349, 559.551697, 136.0, 19.0 ],
					"id" : "obj-60",
					"saved_object_attributes" : 					{
						"interval" : 100,
						"volume_color" : [ 0.2, 0.5, 1.0, 0.5 ],
						"show_volume" : 1,
						"trajectory_color" : [ 1.0, 1.0, 1.0, 0.74902 ],
						"volume" : [ 0.5, 0.8, 0.25 ],
						"interpolation" : 1,
						"connect" : "spiral",
						"trajectory_point_color" : [ 0.0, 0.0, 0.0, 0.0 ],
						"loop" : 1,
						"volume_type" : 0,
						"index" : 0,
						"pointsize" : 0.0
					}

				}

			}
, 			{
				"box" : 				{
					"maxclass" : "comment",
					"text" : "connect ambicontrol",
					"fontname" : "Verdana",
					"numinlets" : 1,
					"numoutlets" : 0,
					"fontsize" : 10.0,
					"patching_rect" : [ 53.763462, 77.406128, 110.0, 19.0 ],
					"id" : "obj-61"
				}

			}
, 			{
				"box" : 				{
					"maxclass" : "comment",
					"text" : "• 1.",
					"fontname" : "Verdana",
					"numinlets" : 1,
					"numoutlets" : 0,
					"fontsize" : 10.0,
					"patching_rect" : [ 24.139387, 77.406128, 27.0, 19.0 ],
					"id" : "obj-62"
				}

			}
, 			{
				"box" : 				{
					"maxclass" : "comment",
					"text" : "scale each dimension individually",
					"linecount" : 2,
					"fontname" : "Verdana",
					"numinlets" : 1,
					"numoutlets" : 0,
					"fontsize" : 10.0,
					"patching_rect" : [ 297.592407, 327.245209, 119.0, 31.0 ],
					"id" : "obj-63"
				}

			}
, 			{
				"box" : 				{
					"maxclass" : "comment",
					"text" : "implementing an algorithmically generated trajectory",
					"fontname" : "Verdana Bold",
					"numinlets" : 1,
					"numoutlets" : 0,
					"fontsize" : 12.0,
					"patching_rect" : [ 23.0, 27.0, 375.0, 21.0 ],
					"id" : "obj-64"
				}

			}
 ],
		"lines" : [ 			{
				"patchline" : 				{
					"source" : [ "obj-9", 0 ],
					"destination" : [ "obj-25", 0 ],
					"hidden" : 0,
					"midpoints" : [  ]
				}

			}
, 			{
				"patchline" : 				{
					"source" : [ "obj-7", 0 ],
					"destination" : [ "obj-9", 1 ],
					"hidden" : 0,
					"midpoints" : [  ]
				}

			}
, 			{
				"patchline" : 				{
					"source" : [ "obj-6", 0 ],
					"destination" : [ "obj-9", 2 ],
					"hidden" : 0,
					"midpoints" : [  ]
				}

			}
, 			{
				"patchline" : 				{
					"source" : [ "obj-24", 0 ],
					"destination" : [ "obj-9", 0 ],
					"hidden" : 0,
					"midpoints" : [  ]
				}

			}
, 			{
				"patchline" : 				{
					"source" : [ "obj-23", 0 ],
					"destination" : [ "obj-24", 0 ],
					"hidden" : 0,
					"midpoints" : [  ]
				}

			}
, 			{
				"patchline" : 				{
					"source" : [ "obj-7", 0 ],
					"destination" : [ "obj-24", 1 ],
					"hidden" : 0,
					"midpoints" : [  ]
				}

			}
, 			{
				"patchline" : 				{
					"source" : [ "obj-3", 0 ],
					"destination" : [ "obj-6", 0 ],
					"hidden" : 1,
					"midpoints" : [  ]
				}

			}
, 			{
				"patchline" : 				{
					"source" : [ "obj-43", 0 ],
					"destination" : [ "obj-60", 0 ],
					"hidden" : 0,
					"midpoints" : [ 235.310989, 490.517242, 201.129349, 490.517242 ]
				}

			}
, 			{
				"patchline" : 				{
					"source" : [ "obj-33", 0 ],
					"destination" : [ "obj-60", 0 ],
					"hidden" : 0,
					"midpoints" : [ 307.092407, 373.268188, 201.129349, 373.268188 ]
				}

			}
, 			{
				"patchline" : 				{
					"source" : [ "obj-36", 0 ],
					"destination" : [ "obj-60", 0 ],
					"hidden" : 0,
					"midpoints" : [ 227.335266, 245.06131, 201.129349, 245.06131 ]
				}

			}
, 			{
				"patchline" : 				{
					"source" : [ "obj-40", 0 ],
					"destination" : [ "obj-60", 0 ],
					"hidden" : 0,
					"midpoints" : [ 227.335266, 373.268188, 201.129349, 373.268188 ]
				}

			}
, 			{
				"patchline" : 				{
					"source" : [ "obj-58", 0 ],
					"destination" : [ "obj-60", 0 ],
					"hidden" : 0,
					"midpoints" : [ 233.032211, 414.908051, 201.129349, 414.908051 ]
				}

			}
, 			{
				"patchline" : 				{
					"source" : [ "obj-57", 0 ],
					"destination" : [ "obj-60", 0 ],
					"hidden" : 0,
					"midpoints" : [ 228.474655, 191.367813, 201.129349, 191.367813 ]
				}

			}
, 			{
				"patchline" : 				{
					"source" : [ "obj-59", 0 ],
					"destination" : [ "obj-60", 0 ],
					"hidden" : 0,
					"midpoints" : [  ]
				}

			}
, 			{
				"patchline" : 				{
					"source" : [ "obj-34", 0 ],
					"destination" : [ "obj-60", 0 ],
					"hidden" : 0,
					"midpoints" : [ 235.310989, 539.827576, 201.129349, 539.827576 ]
				}

			}
, 			{
				"patchline" : 				{
					"source" : [ "obj-35", 0 ],
					"destination" : [ "obj-36", 0 ],
					"hidden" : 0,
					"midpoints" : [  ]
				}

			}
, 			{
				"patchline" : 				{
					"source" : [ "obj-56", 0 ],
					"destination" : [ "obj-57", 0 ],
					"hidden" : 0,
					"midpoints" : [  ]
				}

			}
, 			{
				"patchline" : 				{
					"source" : [ "obj-42", 0 ],
					"destination" : [ "obj-43", 0 ],
					"hidden" : 0,
					"midpoints" : [  ]
				}

			}
, 			{
				"patchline" : 				{
					"source" : [ "obj-49", 0 ],
					"destination" : [ "obj-50", 0 ],
					"hidden" : 1,
					"midpoints" : [  ]
				}

			}
, 			{
				"patchline" : 				{
					"source" : [ "obj-50", 0 ],
					"destination" : [ "obj-55", 0 ],
					"hidden" : 1,
					"midpoints" : [  ]
				}

			}
, 			{
				"patchline" : 				{
					"source" : [ "obj-4", 0 ],
					"destination" : [ "obj-5", 0 ],
					"hidden" : 0,
					"midpoints" : [  ]
				}

			}
, 			{
				"patchline" : 				{
					"source" : [ "obj-5", 0 ],
					"destination" : [ "obj-23", 0 ],
					"hidden" : 0,
					"midpoints" : [  ]
				}

			}
, 			{
				"patchline" : 				{
					"source" : [ "obj-22", 0 ],
					"destination" : [ "obj-21", 0 ],
					"hidden" : 0,
					"midpoints" : [  ]
				}

			}
, 			{
				"patchline" : 				{
					"source" : [ "obj-11", 0 ],
					"destination" : [ "obj-21", 0 ],
					"hidden" : 0,
					"midpoints" : [ 665.999451, 615.8927, 793.610901, 615.8927 ]
				}

			}
, 			{
				"patchline" : 				{
					"source" : [ "obj-10", 0 ],
					"destination" : [ "obj-21", 0 ],
					"hidden" : 0,
					"midpoints" : [ 744.617188, 615.8927, 793.610901, 615.8927 ]
				}

			}
, 			{
				"patchline" : 				{
					"source" : [ "obj-23", 0 ],
					"destination" : [ "obj-12", 0 ],
					"hidden" : 0,
					"midpoints" : [  ]
				}

			}
, 			{
				"patchline" : 				{
					"source" : [ "obj-22", 0 ],
					"destination" : [ "obj-20", 0 ],
					"hidden" : 0,
					"midpoints" : [  ]
				}

			}
, 			{
				"patchline" : 				{
					"source" : [ "obj-22", 1 ],
					"destination" : [ "obj-21", 1 ],
					"hidden" : 0,
					"midpoints" : [  ]
				}

			}
, 			{
				"patchline" : 				{
					"source" : [ "obj-22", 1 ],
					"destination" : [ "obj-19", 0 ],
					"hidden" : 0,
					"midpoints" : [  ]
				}

			}
, 			{
				"patchline" : 				{
					"source" : [ "obj-55", 0 ],
					"destination" : [ "obj-8", 0 ],
					"hidden" : 0,
					"midpoints" : [ 450.655212, 526.678162, 741.953552, 526.678162, 741.953552, 291.08429, 863.392273, 291.08429 ]
				}

			}
, 			{
				"patchline" : 				{
					"source" : [ "obj-8", 0 ],
					"destination" : [ "obj-7", 0 ],
					"hidden" : 0,
					"midpoints" : [  ]
				}

			}
, 			{
				"patchline" : 				{
					"source" : [ "obj-22", 2 ],
					"destination" : [ "obj-21", 2 ],
					"hidden" : 0,
					"midpoints" : [  ]
				}

			}
, 			{
				"patchline" : 				{
					"source" : [ "obj-22", 2 ],
					"destination" : [ "obj-18", 0 ],
					"hidden" : 0,
					"midpoints" : [  ]
				}

			}
, 			{
				"patchline" : 				{
					"source" : [ "obj-22", 3 ],
					"destination" : [ "obj-21", 3 ],
					"hidden" : 0,
					"midpoints" : [  ]
				}

			}
, 			{
				"patchline" : 				{
					"source" : [ "obj-22", 3 ],
					"destination" : [ "obj-17", 0 ],
					"hidden" : 0,
					"midpoints" : [  ]
				}

			}
, 			{
				"patchline" : 				{
					"source" : [ "obj-22", 4 ],
					"destination" : [ "obj-21", 4 ],
					"hidden" : 0,
					"midpoints" : [  ]
				}

			}
, 			{
				"patchline" : 				{
					"source" : [ "obj-22", 4 ],
					"destination" : [ "obj-16", 0 ],
					"hidden" : 0,
					"midpoints" : [  ]
				}

			}
, 			{
				"patchline" : 				{
					"source" : [ "obj-22", 5 ],
					"destination" : [ "obj-21", 5 ],
					"hidden" : 0,
					"midpoints" : [  ]
				}

			}
, 			{
				"patchline" : 				{
					"source" : [ "obj-22", 5 ],
					"destination" : [ "obj-15", 0 ],
					"hidden" : 0,
					"midpoints" : [  ]
				}

			}
, 			{
				"patchline" : 				{
					"source" : [ "obj-22", 6 ],
					"destination" : [ "obj-21", 6 ],
					"hidden" : 0,
					"midpoints" : [  ]
				}

			}
, 			{
				"patchline" : 				{
					"source" : [ "obj-22", 6 ],
					"destination" : [ "obj-14", 0 ],
					"hidden" : 0,
					"midpoints" : [  ]
				}

			}
, 			{
				"patchline" : 				{
					"source" : [ "obj-22", 7 ],
					"destination" : [ "obj-21", 7 ],
					"hidden" : 0,
					"midpoints" : [  ]
				}

			}
, 			{
				"patchline" : 				{
					"source" : [ "obj-22", 7 ],
					"destination" : [ "obj-13", 0 ],
					"hidden" : 0,
					"midpoints" : [  ]
				}

			}
, 			{
				"patchline" : 				{
					"source" : [ "obj-66", 0 ],
					"destination" : [ "obj-22", 0 ],
					"hidden" : 0,
					"midpoints" : [ 1083.5, 460.885071, 793.610901, 460.885071 ]
				}

			}
, 			{
				"patchline" : 				{
					"source" : [ "obj-68", 0 ],
					"destination" : [ "obj-66", 0 ],
					"hidden" : 0,
					"midpoints" : [  ]
				}

			}
, 			{
				"patchline" : 				{
					"source" : [ "obj-25", 15 ],
					"destination" : [ "obj-22", 15 ],
					"hidden" : 0,
					"color" : [ 1.0, 0.360784, 0.682353, 1.0 ],
					"midpoints" : [  ]
				}

			}
, 			{
				"patchline" : 				{
					"source" : [ "obj-25", 14 ],
					"destination" : [ "obj-22", 14 ],
					"hidden" : 0,
					"color" : [ 1.0, 0.360784, 0.682353, 1.0 ],
					"midpoints" : [  ]
				}

			}
, 			{
				"patchline" : 				{
					"source" : [ "obj-25", 13 ],
					"destination" : [ "obj-22", 13 ],
					"hidden" : 0,
					"color" : [ 1.0, 0.360784, 0.682353, 1.0 ],
					"midpoints" : [  ]
				}

			}
, 			{
				"patchline" : 				{
					"source" : [ "obj-25", 12 ],
					"destination" : [ "obj-22", 12 ],
					"hidden" : 0,
					"color" : [ 1.0, 0.360784, 0.682353, 1.0 ],
					"midpoints" : [  ]
				}

			}
, 			{
				"patchline" : 				{
					"source" : [ "obj-25", 11 ],
					"destination" : [ "obj-22", 11 ],
					"hidden" : 0,
					"color" : [ 1.0, 0.360784, 0.682353, 1.0 ],
					"midpoints" : [  ]
				}

			}
, 			{
				"patchline" : 				{
					"source" : [ "obj-25", 10 ],
					"destination" : [ "obj-22", 10 ],
					"hidden" : 0,
					"color" : [ 1.0, 0.360784, 0.682353, 1.0 ],
					"midpoints" : [  ]
				}

			}
, 			{
				"patchline" : 				{
					"source" : [ "obj-25", 9 ],
					"destination" : [ "obj-22", 9 ],
					"hidden" : 0,
					"color" : [ 1.0, 0.360784, 0.682353, 1.0 ],
					"midpoints" : [  ]
				}

			}
, 			{
				"patchline" : 				{
					"source" : [ "obj-25", 8 ],
					"destination" : [ "obj-22", 8 ],
					"hidden" : 0,
					"color" : [ 1.0, 0.360784, 0.682353, 1.0 ],
					"midpoints" : [  ]
				}

			}
, 			{
				"patchline" : 				{
					"source" : [ "obj-25", 7 ],
					"destination" : [ "obj-22", 7 ],
					"hidden" : 0,
					"color" : [ 1.0, 0.360784, 0.682353, 1.0 ],
					"midpoints" : [  ]
				}

			}
, 			{
				"patchline" : 				{
					"source" : [ "obj-25", 6 ],
					"destination" : [ "obj-22", 6 ],
					"hidden" : 0,
					"color" : [ 1.0, 0.360784, 0.682353, 1.0 ],
					"midpoints" : [  ]
				}

			}
, 			{
				"patchline" : 				{
					"source" : [ "obj-25", 5 ],
					"destination" : [ "obj-22", 5 ],
					"hidden" : 0,
					"color" : [ 1.0, 0.360784, 0.682353, 1.0 ],
					"midpoints" : [  ]
				}

			}
, 			{
				"patchline" : 				{
					"source" : [ "obj-25", 4 ],
					"destination" : [ "obj-22", 4 ],
					"hidden" : 0,
					"color" : [ 1.0, 0.360784, 0.682353, 1.0 ],
					"midpoints" : [  ]
				}

			}
, 			{
				"patchline" : 				{
					"source" : [ "obj-25", 3 ],
					"destination" : [ "obj-22", 3 ],
					"hidden" : 0,
					"color" : [ 1.0, 0.360784, 0.682353, 1.0 ],
					"midpoints" : [  ]
				}

			}
, 			{
				"patchline" : 				{
					"source" : [ "obj-25", 2 ],
					"destination" : [ "obj-22", 2 ],
					"hidden" : 0,
					"color" : [ 1.0, 0.360784, 0.682353, 1.0 ],
					"midpoints" : [  ]
				}

			}
, 			{
				"patchline" : 				{
					"source" : [ "obj-25", 1 ],
					"destination" : [ "obj-22", 1 ],
					"hidden" : 0,
					"color" : [ 1.0, 0.360784, 0.682353, 1.0 ],
					"midpoints" : [  ]
				}

			}
, 			{
				"patchline" : 				{
					"source" : [ "obj-25", 0 ],
					"destination" : [ "obj-22", 0 ],
					"hidden" : 0,
					"color" : [ 1.0, 0.360784, 0.682353, 1.0 ],
					"midpoints" : [  ]
				}

			}
, 			{
				"patchline" : 				{
					"source" : [ "obj-55", 0 ],
					"destination" : [ "obj-25", 0 ],
					"hidden" : 0,
					"midpoints" : [ 450.655212, 526.678162, 741.953552, 526.678162, 741.953552, 396.279694, 793.610901, 396.279694 ]
				}

			}
 ]
	}

}
