{
	"patcher" : 	{
		"fileversion" : 1,
		"rect" : [ 5.0, 44.0, 924.0, 660.0 ],
		"bglocked" : 0,
		"defrect" : [ 5.0, 44.0, 924.0, 660.0 ],
		"openrect" : [ 0.0, 0.0, 0.0, 0.0 ],
		"openinpresentation" : 0,
		"default_fontsize" : 11.0,
		"default_fontface" : 0,
		"default_fontname" : "Arial",
		"gridonopen" : 0,
		"gridsize" : [ 15.0, 15.0 ],
		"gridsnaponopen" : 0,
		"toolbarvisible" : 1,
		"boxanimatetime" : 200,
		"imprint" : 0,
		"enablehscroll" : 1,
		"enablevscroll" : 1,
		"devicewidth" : 0.0,
		"boxes" : [ 			{
				"box" : 				{
					"maxclass" : "comment",
					"text" : "• 6.",
					"fontname" : "Verdana",
					"numinlets" : 1,
					"numoutlets" : 0,
					"fontsize" : 10.0,
					"patching_rect" : [ 40.0, 593.0, 29.0, 19.0 ],
					"id" : "obj-3"
				}

			}
, 			{
				"box" : 				{
					"maxclass" : "comment",
					"text" : "use arow keys to shift points",
					"fontname" : "Verdana",
					"numinlets" : 1,
					"numoutlets" : 0,
					"fontsize" : 10.0,
					"patching_rect" : [ 67.0, 593.0, 155.0, 19.0 ],
					"id" : "obj-4"
				}

			}
, 			{
				"box" : 				{
					"maxclass" : "comment",
					"text" : "• 5.",
					"fontname" : "Verdana",
					"numinlets" : 1,
					"numoutlets" : 0,
					"fontsize" : 10.0,
					"patching_rect" : [ 40.0, 573.0, 29.0, 19.0 ],
					"id" : "obj-5"
				}

			}
, 			{
				"box" : 				{
					"maxclass" : "comment",
					"text" : "release alt key",
					"fontname" : "Verdana",
					"numinlets" : 1,
					"numoutlets" : 0,
					"fontsize" : 10.0,
					"patching_rect" : [ 67.0, 573.0, 84.0, 19.0 ],
					"id" : "obj-6"
				}

			}
, 			{
				"box" : 				{
					"maxclass" : "comment",
					"text" : "using keyboard commands:",
					"fontname" : "Verdana Bold",
					"numinlets" : 1,
					"numoutlets" : 0,
					"fontsize" : 10.0,
					"patching_rect" : [ 32.0, 471.0, 165.0, 19.0 ],
					"id" : "obj-7"
				}

			}
, 			{
				"box" : 				{
					"maxclass" : "comment",
					"text" : "• 4.",
					"fontname" : "Verdana",
					"numinlets" : 1,
					"numoutlets" : 0,
					"fontsize" : 10.0,
					"patching_rect" : [ 40.0, 553.0, 29.0, 19.0 ],
					"id" : "obj-8"
				}

			}
, 			{
				"box" : 				{
					"maxclass" : "comment",
					"text" : "• 3.",
					"fontname" : "Verdana",
					"numinlets" : 1,
					"numoutlets" : 0,
					"fontsize" : 10.0,
					"patching_rect" : [ 40.0, 533.0, 29.0, 19.0 ],
					"id" : "obj-9"
				}

			}
, 			{
				"box" : 				{
					"maxclass" : "comment",
					"text" : "• 2.",
					"fontname" : "Verdana",
					"numinlets" : 1,
					"numoutlets" : 0,
					"fontsize" : 10.0,
					"patching_rect" : [ 40.0, 513.0, 29.0, 19.0 ],
					"id" : "obj-10"
				}

			}
, 			{
				"box" : 				{
					"maxclass" : "comment",
					"text" : "type \"a\" to select all points",
					"fontname" : "Verdana",
					"numinlets" : 1,
					"numoutlets" : 0,
					"fontsize" : 10.0,
					"patching_rect" : [ 67.0, 513.0, 146.0, 19.0 ],
					"id" : "obj-11"
				}

			}
, 			{
				"box" : 				{
					"maxclass" : "comment",
					"text" : "use arow keys to rotate and zoom points",
					"fontname" : "Verdana",
					"numinlets" : 1,
					"numoutlets" : 0,
					"fontsize" : 10.0,
					"patching_rect" : [ 67.0, 553.0, 217.0, 19.0 ],
					"id" : "obj-12"
				}

			}
, 			{
				"box" : 				{
					"maxclass" : "comment",
					"text" : "hold down the alt key",
					"fontname" : "Verdana",
					"numinlets" : 1,
					"numoutlets" : 0,
					"fontsize" : 10.0,
					"patching_rect" : [ 67.0, 533.0, 119.0, 19.0 ],
					"id" : "obj-13"
				}

			}
, 			{
				"box" : 				{
					"maxclass" : "comment",
					"text" : "• start audio",
					"fontname" : "Verdana",
					"numinlets" : 1,
					"numoutlets" : 0,
					"fontsize" : 10.0,
					"patching_rect" : [ 337.0, 602.0, 74.0, 19.0 ],
					"id" : "obj-14"
				}

			}
, 			{
				"box" : 				{
					"maxclass" : "comment",
					"text" : "intensify the impression of distance by applying a low-pass filter to simulate air absorption",
					"linecount" : 4,
					"fontname" : "Verdana",
					"numinlets" : 1,
					"numoutlets" : 0,
					"fontsize" : 10.0,
					"patching_rect" : [ 363.0, 382.0, 149.0, 55.0 ],
					"id" : "obj-15"
				}

			}
, 			{
				"box" : 				{
					"maxclass" : "comment",
					"text" : "use the status flag to mute/unmute the source (sound is muted when the point is deleted in the monitor)",
					"linecount" : 4,
					"fontname" : "Verdana",
					"numinlets" : 1,
					"numoutlets" : 0,
					"fontsize" : 10.0,
					"patching_rect" : [ 363.0, 274.0, 167.0, 55.0 ],
					"id" : "obj-16"
				}

			}
, 			{
				"box" : 				{
					"maxclass" : "comment",
					"text" : "output: aed <index> <azimuth> <elevation> <distance> <status>",
					"linecount" : 2,
					"fontname" : "Verdana",
					"numinlets" : 1,
					"numoutlets" : 0,
					"fontsize" : 10.0,
					"patching_rect" : [ 50.0, 404.0, 183.0, 31.0 ],
					"id" : "obj-17"
				}

			}
, 			{
				"box" : 				{
					"maxclass" : "newobj",
					"text" : "loadbang",
					"fontname" : "Verdana",
					"numinlets" : 1,
					"numoutlets" : 1,
					"fontsize" : 10.0,
					"outlettype" : [ "bang" ],
					"patching_rect" : [ 533.0, 72.0, 56.0, 19.0 ],
					"id" : "obj-18"
				}

			}
, 			{
				"box" : 				{
					"maxclass" : "newobj",
					"text" : "loadbang",
					"hidden" : 1,
					"fontname" : "Verdana",
					"numinlets" : 1,
					"numoutlets" : 1,
					"fontsize" : 10.0,
					"outlettype" : [ "bang" ],
					"patching_rect" : [ 35.0, -10.0, 56.0, 19.0 ],
					"id" : "obj-19"
				}

			}
, 			{
				"box" : 				{
					"maxclass" : "message",
					"text" : "aed 1 -45 0 0.8, aed 2 45 0 0.8, aed 3 135 0 0.8, aed 4 -135 0 0.8",
					"hidden" : 1,
					"fontname" : "Verdana",
					"numinlets" : 2,
					"numoutlets" : 1,
					"fontsize" : 10.0,
					"outlettype" : [ "" ],
					"patching_rect" : [ 35.0, 10.0, 350.0, 17.0 ],
					"id" : "obj-20"
				}

			}
, 			{
				"box" : 				{
					"maxclass" : "newobj",
					"text" : "route 1 2 3 4",
					"fontname" : "Verdana",
					"numinlets" : 1,
					"numoutlets" : 5,
					"fontsize" : 10.0,
					"outlettype" : [ "", "", "", "", "" ],
					"patching_rect" : [ 351.0, 345.0, 77.0, 19.0 ],
					"id" : "obj-21"
				}

			}
, 			{
				"box" : 				{
					"maxclass" : "message",
					"text" : "stop",
					"fontname" : "Verdana",
					"numinlets" : 2,
					"numoutlets" : 1,
					"fontsize" : 10.0,
					"outlettype" : [ "" ],
					"patching_rect" : [ 488.0, 603.0, 32.5, 17.0 ],
					"id" : "obj-22"
				}

			}
, 			{
				"box" : 				{
					"maxclass" : "message",
					"text" : "startwindow",
					"fontname" : "Verdana",
					"numinlets" : 2,
					"numoutlets" : 1,
					"fontsize" : 10.0,
					"outlettype" : [ "" ],
					"patching_rect" : [ 414.0, 603.0, 72.0, 17.0 ],
					"id" : "obj-23"
				}

			}
, 			{
				"box" : 				{
					"maxclass" : "newobj",
					"text" : "route aed",
					"fontname" : "Verdana",
					"numinlets" : 1,
					"numoutlets" : 2,
					"fontsize" : 10.0,
					"outlettype" : [ "", "" ],
					"patching_rect" : [ 351.0, 218.0, 59.0, 19.0 ],
					"id" : "obj-24"
				}

			}
, 			{
				"box" : 				{
					"maxclass" : "newobj",
					"text" : "p mute",
					"fontname" : "Verdana",
					"numinlets" : 2,
					"numoutlets" : 1,
					"fontsize" : 10.0,
					"outlettype" : [ "signal" ],
					"patching_rect" : [ 776.0, 287.0, 46.0, 19.0 ],
					"id" : "obj-25",
					"patcher" : 					{
						"fileversion" : 1,
						"rect" : [ 10.0, 59.0, 229.0, 240.0 ],
						"bglocked" : 0,
						"defrect" : [ 10.0, 59.0, 229.0, 240.0 ],
						"openrect" : [ 0.0, 0.0, 0.0, 0.0 ],
						"openinpresentation" : 0,
						"default_fontsize" : 11.0,
						"default_fontface" : 0,
						"default_fontname" : "Arial",
						"gridonopen" : 0,
						"gridsize" : [ 15.0, 15.0 ],
						"gridsnaponopen" : 0,
						"toolbarvisible" : 1,
						"boxanimatetime" : 200,
						"imprint" : 0,
						"enablehscroll" : 1,
						"enablevscroll" : 1,
						"devicewidth" : 0.0,
						"boxes" : [ 							{
								"box" : 								{
									"maxclass" : "outlet",
									"numinlets" : 1,
									"numoutlets" : 0,
									"patching_rect" : [ 22.0, 195.0, 25.0, 25.0 ],
									"id" : "obj-1",
									"comment" : "signal out"
								}

							}
, 							{
								"box" : 								{
									"maxclass" : "newobj",
									"text" : "gate~",
									"fontname" : "Verdana",
									"numinlets" : 2,
									"numoutlets" : 1,
									"fontsize" : 10.0,
									"outlettype" : [ "signal" ],
									"patching_rect" : [ 22.0, 168.0, 42.0, 19.0 ],
									"id" : "obj-2"
								}

							}
, 							{
								"box" : 								{
									"maxclass" : "inlet",
									"numinlets" : 0,
									"numoutlets" : 1,
									"outlettype" : [ "signal" ],
									"patching_rect" : [ 45.0, 36.0, 25.0, 25.0 ],
									"id" : "obj-3",
									"comment" : "signal in"
								}

							}
, 							{
								"box" : 								{
									"maxclass" : "comment",
									"text" : "signal in",
									"fontname" : "Verdana",
									"numinlets" : 1,
									"numoutlets" : 0,
									"fontsize" : 10.0,
									"patching_rect" : [ 73.0, 39.0, 53.0, 19.0 ],
									"id" : "obj-4"
								}

							}
, 							{
								"box" : 								{
									"maxclass" : "newobj",
									"text" : "zl nth 4",
									"fontname" : "Verdana",
									"numinlets" : 2,
									"numoutlets" : 2,
									"fontsize" : 10.0,
									"outlettype" : [ "", "" ],
									"patching_rect" : [ 82.0, 106.0, 49.0, 19.0 ],
									"id" : "obj-5"
								}

							}
, 							{
								"box" : 								{
									"maxclass" : "inlet",
									"numinlets" : 0,
									"numoutlets" : 1,
									"outlettype" : [ "" ],
									"patching_rect" : [ 82.0, 76.0, 25.0, 25.0 ],
									"id" : "obj-6",
									"comment" : "coordinates: a e d status"
								}

							}
, 							{
								"box" : 								{
									"maxclass" : "comment",
									"text" : "aed coordinate input",
									"fontname" : "Verdana",
									"numinlets" : 1,
									"numoutlets" : 0,
									"fontsize" : 10.0,
									"patching_rect" : [ 110.0, 79.0, 115.0, 19.0 ],
									"id" : "obj-7"
								}

							}
 ],
						"lines" : [ 							{
								"patchline" : 								{
									"source" : [ "obj-5", 0 ],
									"destination" : [ "obj-2", 0 ],
									"hidden" : 0,
									"midpoints" : [  ]
								}

							}
, 							{
								"patchline" : 								{
									"source" : [ "obj-2", 0 ],
									"destination" : [ "obj-1", 0 ],
									"hidden" : 0,
									"midpoints" : [  ]
								}

							}
, 							{
								"patchline" : 								{
									"source" : [ "obj-3", 0 ],
									"destination" : [ "obj-2", 1 ],
									"hidden" : 0,
									"midpoints" : [  ]
								}

							}
, 							{
								"patchline" : 								{
									"source" : [ "obj-6", 0 ],
									"destination" : [ "obj-5", 0 ],
									"hidden" : 0,
									"midpoints" : [  ]
								}

							}
 ]
					}
,
					"saved_object_attributes" : 					{
						"fontname" : "Arial",
						"globalpatchername" : "",
						"default_fontsize" : 11.0,
						"fontface" : 0,
						"fontsize" : 11.0,
						"default_fontface" : 0,
						"default_fontname" : "Arial"
					}

				}

			}
, 			{
				"box" : 				{
					"maxclass" : "newobj",
					"text" : "p mute",
					"fontname" : "Verdana",
					"numinlets" : 2,
					"numoutlets" : 1,
					"fontsize" : 10.0,
					"outlettype" : [ "signal" ],
					"patching_rect" : [ 695.0, 287.0, 46.0, 19.0 ],
					"id" : "obj-26",
					"patcher" : 					{
						"fileversion" : 1,
						"rect" : [ 10.0, 59.0, 229.0, 240.0 ],
						"bglocked" : 0,
						"defrect" : [ 10.0, 59.0, 229.0, 240.0 ],
						"openrect" : [ 0.0, 0.0, 0.0, 0.0 ],
						"openinpresentation" : 0,
						"default_fontsize" : 11.0,
						"default_fontface" : 0,
						"default_fontname" : "Arial",
						"gridonopen" : 0,
						"gridsize" : [ 15.0, 15.0 ],
						"gridsnaponopen" : 0,
						"toolbarvisible" : 1,
						"boxanimatetime" : 200,
						"imprint" : 0,
						"enablehscroll" : 1,
						"enablevscroll" : 1,
						"devicewidth" : 0.0,
						"boxes" : [ 							{
								"box" : 								{
									"maxclass" : "outlet",
									"numinlets" : 1,
									"numoutlets" : 0,
									"patching_rect" : [ 22.0, 195.0, 25.0, 25.0 ],
									"id" : "obj-1",
									"comment" : "signal out"
								}

							}
, 							{
								"box" : 								{
									"maxclass" : "newobj",
									"text" : "gate~",
									"fontname" : "Verdana",
									"numinlets" : 2,
									"numoutlets" : 1,
									"fontsize" : 10.0,
									"outlettype" : [ "signal" ],
									"patching_rect" : [ 22.0, 168.0, 42.0, 19.0 ],
									"id" : "obj-2"
								}

							}
, 							{
								"box" : 								{
									"maxclass" : "inlet",
									"numinlets" : 0,
									"numoutlets" : 1,
									"outlettype" : [ "signal" ],
									"patching_rect" : [ 45.0, 36.0, 25.0, 25.0 ],
									"id" : "obj-3",
									"comment" : "signal in"
								}

							}
, 							{
								"box" : 								{
									"maxclass" : "comment",
									"text" : "signal in",
									"fontname" : "Verdana",
									"numinlets" : 1,
									"numoutlets" : 0,
									"fontsize" : 10.0,
									"patching_rect" : [ 73.0, 39.0, 53.0, 19.0 ],
									"id" : "obj-4"
								}

							}
, 							{
								"box" : 								{
									"maxclass" : "newobj",
									"text" : "zl nth 4",
									"fontname" : "Verdana",
									"numinlets" : 2,
									"numoutlets" : 2,
									"fontsize" : 10.0,
									"outlettype" : [ "", "" ],
									"patching_rect" : [ 82.0, 106.0, 49.0, 19.0 ],
									"id" : "obj-5"
								}

							}
, 							{
								"box" : 								{
									"maxclass" : "inlet",
									"numinlets" : 0,
									"numoutlets" : 1,
									"outlettype" : [ "" ],
									"patching_rect" : [ 82.0, 76.0, 25.0, 25.0 ],
									"id" : "obj-6",
									"comment" : "coordinates: a e d status"
								}

							}
, 							{
								"box" : 								{
									"maxclass" : "comment",
									"text" : "aed coordinate input",
									"fontname" : "Verdana",
									"numinlets" : 1,
									"numoutlets" : 0,
									"fontsize" : 10.0,
									"patching_rect" : [ 110.0, 79.0, 115.0, 19.0 ],
									"id" : "obj-7"
								}

							}
 ],
						"lines" : [ 							{
								"patchline" : 								{
									"source" : [ "obj-5", 0 ],
									"destination" : [ "obj-2", 0 ],
									"hidden" : 0,
									"midpoints" : [  ]
								}

							}
, 							{
								"patchline" : 								{
									"source" : [ "obj-2", 0 ],
									"destination" : [ "obj-1", 0 ],
									"hidden" : 0,
									"midpoints" : [  ]
								}

							}
, 							{
								"patchline" : 								{
									"source" : [ "obj-3", 0 ],
									"destination" : [ "obj-2", 1 ],
									"hidden" : 0,
									"midpoints" : [  ]
								}

							}
, 							{
								"patchline" : 								{
									"source" : [ "obj-6", 0 ],
									"destination" : [ "obj-5", 0 ],
									"hidden" : 0,
									"midpoints" : [  ]
								}

							}
 ]
					}
,
					"saved_object_attributes" : 					{
						"fontname" : "Arial",
						"globalpatchername" : "",
						"default_fontsize" : 11.0,
						"fontface" : 0,
						"fontsize" : 11.0,
						"default_fontface" : 0,
						"default_fontname" : "Arial"
					}

				}

			}
, 			{
				"box" : 				{
					"maxclass" : "newobj",
					"text" : "p mute",
					"fontname" : "Verdana",
					"numinlets" : 2,
					"numoutlets" : 1,
					"fontsize" : 10.0,
					"outlettype" : [ "signal" ],
					"patching_rect" : [ 614.0, 287.0, 46.0, 19.0 ],
					"id" : "obj-27",
					"patcher" : 					{
						"fileversion" : 1,
						"rect" : [ 10.0, 59.0, 229.0, 240.0 ],
						"bglocked" : 0,
						"defrect" : [ 10.0, 59.0, 229.0, 240.0 ],
						"openrect" : [ 0.0, 0.0, 0.0, 0.0 ],
						"openinpresentation" : 0,
						"default_fontsize" : 11.0,
						"default_fontface" : 0,
						"default_fontname" : "Arial",
						"gridonopen" : 0,
						"gridsize" : [ 15.0, 15.0 ],
						"gridsnaponopen" : 0,
						"toolbarvisible" : 1,
						"boxanimatetime" : 200,
						"imprint" : 0,
						"enablehscroll" : 1,
						"enablevscroll" : 1,
						"devicewidth" : 0.0,
						"boxes" : [ 							{
								"box" : 								{
									"maxclass" : "outlet",
									"numinlets" : 1,
									"numoutlets" : 0,
									"patching_rect" : [ 22.0, 195.0, 25.0, 25.0 ],
									"id" : "obj-1",
									"comment" : "signal out"
								}

							}
, 							{
								"box" : 								{
									"maxclass" : "newobj",
									"text" : "gate~",
									"fontname" : "Verdana",
									"numinlets" : 2,
									"numoutlets" : 1,
									"fontsize" : 10.0,
									"outlettype" : [ "signal" ],
									"patching_rect" : [ 22.0, 168.0, 42.0, 19.0 ],
									"id" : "obj-2"
								}

							}
, 							{
								"box" : 								{
									"maxclass" : "inlet",
									"numinlets" : 0,
									"numoutlets" : 1,
									"outlettype" : [ "signal" ],
									"patching_rect" : [ 45.0, 36.0, 25.0, 25.0 ],
									"id" : "obj-3",
									"comment" : "signal in"
								}

							}
, 							{
								"box" : 								{
									"maxclass" : "comment",
									"text" : "signal in",
									"fontname" : "Verdana",
									"numinlets" : 1,
									"numoutlets" : 0,
									"fontsize" : 10.0,
									"patching_rect" : [ 73.0, 39.0, 53.0, 19.0 ],
									"id" : "obj-4"
								}

							}
, 							{
								"box" : 								{
									"maxclass" : "newobj",
									"text" : "zl nth 4",
									"fontname" : "Verdana",
									"numinlets" : 2,
									"numoutlets" : 2,
									"fontsize" : 10.0,
									"outlettype" : [ "", "" ],
									"patching_rect" : [ 82.0, 106.0, 49.0, 19.0 ],
									"id" : "obj-5"
								}

							}
, 							{
								"box" : 								{
									"maxclass" : "inlet",
									"numinlets" : 0,
									"numoutlets" : 1,
									"outlettype" : [ "" ],
									"patching_rect" : [ 82.0, 76.0, 25.0, 25.0 ],
									"id" : "obj-6",
									"comment" : "coordinates: a e d status"
								}

							}
, 							{
								"box" : 								{
									"maxclass" : "comment",
									"text" : "aed coordinate input",
									"fontname" : "Verdana",
									"numinlets" : 1,
									"numoutlets" : 0,
									"fontsize" : 10.0,
									"patching_rect" : [ 110.0, 79.0, 115.0, 19.0 ],
									"id" : "obj-7"
								}

							}
 ],
						"lines" : [ 							{
								"patchline" : 								{
									"source" : [ "obj-5", 0 ],
									"destination" : [ "obj-2", 0 ],
									"hidden" : 0,
									"midpoints" : [  ]
								}

							}
, 							{
								"patchline" : 								{
									"source" : [ "obj-2", 0 ],
									"destination" : [ "obj-1", 0 ],
									"hidden" : 0,
									"midpoints" : [  ]
								}

							}
, 							{
								"patchline" : 								{
									"source" : [ "obj-3", 0 ],
									"destination" : [ "obj-2", 1 ],
									"hidden" : 0,
									"midpoints" : [  ]
								}

							}
, 							{
								"patchline" : 								{
									"source" : [ "obj-6", 0 ],
									"destination" : [ "obj-5", 0 ],
									"hidden" : 0,
									"midpoints" : [  ]
								}

							}
 ]
					}
,
					"saved_object_attributes" : 					{
						"fontname" : "Arial",
						"globalpatchername" : "",
						"default_fontsize" : 11.0,
						"fontface" : 0,
						"fontsize" : 11.0,
						"default_fontface" : 0,
						"default_fontname" : "Arial"
					}

				}

			}
, 			{
				"box" : 				{
					"maxclass" : "newobj",
					"text" : "p mute",
					"fontname" : "Verdana",
					"numinlets" : 2,
					"numoutlets" : 1,
					"fontsize" : 10.0,
					"outlettype" : [ "signal" ],
					"patching_rect" : [ 533.0, 287.0, 46.0, 19.0 ],
					"id" : "obj-28",
					"patcher" : 					{
						"fileversion" : 1,
						"rect" : [ 10.0, 59.0, 229.0, 240.0 ],
						"bglocked" : 0,
						"defrect" : [ 10.0, 59.0, 229.0, 240.0 ],
						"openrect" : [ 0.0, 0.0, 0.0, 0.0 ],
						"openinpresentation" : 0,
						"default_fontsize" : 11.0,
						"default_fontface" : 0,
						"default_fontname" : "Arial",
						"gridonopen" : 0,
						"gridsize" : [ 15.0, 15.0 ],
						"gridsnaponopen" : 0,
						"toolbarvisible" : 1,
						"boxanimatetime" : 200,
						"imprint" : 0,
						"enablehscroll" : 1,
						"enablevscroll" : 1,
						"devicewidth" : 0.0,
						"boxes" : [ 							{
								"box" : 								{
									"maxclass" : "outlet",
									"numinlets" : 1,
									"numoutlets" : 0,
									"patching_rect" : [ 22.0, 195.0, 25.0, 25.0 ],
									"id" : "obj-1",
									"comment" : "signal out"
								}

							}
, 							{
								"box" : 								{
									"maxclass" : "newobj",
									"text" : "gate~",
									"fontname" : "Verdana",
									"numinlets" : 2,
									"numoutlets" : 1,
									"fontsize" : 10.0,
									"outlettype" : [ "signal" ],
									"patching_rect" : [ 22.0, 168.0, 42.0, 19.0 ],
									"id" : "obj-2"
								}

							}
, 							{
								"box" : 								{
									"maxclass" : "inlet",
									"numinlets" : 0,
									"numoutlets" : 1,
									"outlettype" : [ "signal" ],
									"patching_rect" : [ 45.0, 36.0, 25.0, 25.0 ],
									"id" : "obj-3",
									"comment" : "signal in"
								}

							}
, 							{
								"box" : 								{
									"maxclass" : "comment",
									"text" : "signal in",
									"fontname" : "Verdana",
									"numinlets" : 1,
									"numoutlets" : 0,
									"fontsize" : 10.0,
									"patching_rect" : [ 73.0, 39.0, 53.0, 19.0 ],
									"id" : "obj-4"
								}

							}
, 							{
								"box" : 								{
									"maxclass" : "newobj",
									"text" : "zl nth 4",
									"fontname" : "Verdana",
									"numinlets" : 2,
									"numoutlets" : 2,
									"fontsize" : 10.0,
									"outlettype" : [ "", "" ],
									"patching_rect" : [ 82.0, 106.0, 49.0, 19.0 ],
									"id" : "obj-5"
								}

							}
, 							{
								"box" : 								{
									"maxclass" : "inlet",
									"numinlets" : 0,
									"numoutlets" : 1,
									"outlettype" : [ "" ],
									"patching_rect" : [ 82.0, 76.0, 25.0, 25.0 ],
									"id" : "obj-6",
									"comment" : "coordinates: a e d status"
								}

							}
, 							{
								"box" : 								{
									"maxclass" : "comment",
									"text" : "aed coordinate input",
									"fontname" : "Verdana",
									"numinlets" : 1,
									"numoutlets" : 0,
									"fontsize" : 10.0,
									"patching_rect" : [ 110.0, 79.0, 115.0, 19.0 ],
									"id" : "obj-7"
								}

							}
 ],
						"lines" : [ 							{
								"patchline" : 								{
									"source" : [ "obj-6", 0 ],
									"destination" : [ "obj-5", 0 ],
									"hidden" : 0,
									"midpoints" : [  ]
								}

							}
, 							{
								"patchline" : 								{
									"source" : [ "obj-3", 0 ],
									"destination" : [ "obj-2", 1 ],
									"hidden" : 0,
									"midpoints" : [  ]
								}

							}
, 							{
								"patchline" : 								{
									"source" : [ "obj-2", 0 ],
									"destination" : [ "obj-1", 0 ],
									"hidden" : 0,
									"midpoints" : [  ]
								}

							}
, 							{
								"patchline" : 								{
									"source" : [ "obj-5", 0 ],
									"destination" : [ "obj-2", 0 ],
									"hidden" : 0,
									"midpoints" : [  ]
								}

							}
 ]
					}
,
					"saved_object_attributes" : 					{
						"fontname" : "Arial",
						"globalpatchername" : "",
						"default_fontsize" : 11.0,
						"fontface" : 0,
						"fontsize" : 11.0,
						"default_fontface" : 0,
						"default_fontname" : "Arial"
					}

				}

			}
, 			{
				"box" : 				{
					"maxclass" : "newobj",
					"text" : "route 1 2 3 4",
					"fontname" : "Verdana",
					"numinlets" : 1,
					"numoutlets" : 5,
					"fontsize" : 10.0,
					"outlettype" : [ "", "", "", "", "" ],
					"patching_rect" : [ 361.0, 239.0, 77.0, 19.0 ],
					"id" : "obj-29"
				}

			}
, 			{
				"box" : 				{
					"maxclass" : "newobj",
					"text" : "p absorption",
					"fontname" : "Verdana",
					"numinlets" : 2,
					"numoutlets" : 1,
					"fontsize" : 10.0,
					"outlettype" : [ "signal" ],
					"patching_rect" : [ 776.0, 391.0, 73.0, 19.0 ],
					"id" : "obj-30",
					"patcher" : 					{
						"fileversion" : 1,
						"rect" : [ 4.0, 407.0, 316.0, 331.0 ],
						"bglocked" : 0,
						"defrect" : [ 4.0, 407.0, 316.0, 331.0 ],
						"openrect" : [ 0.0, 0.0, 0.0, 0.0 ],
						"openinpresentation" : 0,
						"default_fontsize" : 11.0,
						"default_fontface" : 0,
						"default_fontname" : "Arial",
						"gridonopen" : 0,
						"gridsize" : [ 15.0, 15.0 ],
						"gridsnaponopen" : 0,
						"toolbarvisible" : 1,
						"boxanimatetime" : 200,
						"imprint" : 0,
						"enablehscroll" : 1,
						"enablevscroll" : 1,
						"devicewidth" : 0.0,
						"boxes" : [ 							{
								"box" : 								{
									"maxclass" : "newobj",
									"text" : "clip 0. 1.",
									"fontname" : "Verdana",
									"numinlets" : 3,
									"numoutlets" : 1,
									"fontsize" : 10.0,
									"outlettype" : [ "" ],
									"patching_rect" : [ 63.0, 119.0, 55.0, 19.0 ],
									"id" : "obj-1"
								}

							}
, 							{
								"box" : 								{
									"maxclass" : "newobj",
									"text" : "zl nth 3",
									"fontname" : "Verdana",
									"numinlets" : 2,
									"numoutlets" : 2,
									"fontsize" : 10.0,
									"outlettype" : [ "", "" ],
									"patching_rect" : [ 63.0, 97.0, 49.0, 19.0 ],
									"id" : "obj-2"
								}

							}
, 							{
								"box" : 								{
									"maxclass" : "newobj",
									"text" : "t 1 1",
									"fontname" : "Verdana",
									"numinlets" : 1,
									"numoutlets" : 2,
									"fontsize" : 10.0,
									"outlettype" : [ "int", "int" ],
									"patching_rect" : [ 109.0, 215.0, 38.0, 19.0 ],
									"id" : "obj-3"
								}

							}
, 							{
								"box" : 								{
									"maxclass" : "inlet",
									"numinlets" : 0,
									"numoutlets" : 1,
									"outlettype" : [ "" ],
									"patching_rect" : [ 63.0, 68.0, 25.0, 25.0 ],
									"id" : "obj-4",
									"comment" : "aed coordinate triplet"
								}

							}
, 							{
								"box" : 								{
									"maxclass" : "newobj",
									"text" : "loadbang",
									"fontname" : "Verdana",
									"numinlets" : 1,
									"numoutlets" : 1,
									"fontsize" : 10.0,
									"outlettype" : [ "bang" ],
									"patching_rect" : [ 109.0, 193.0, 57.0, 19.0 ],
									"id" : "obj-5"
								}

							}
, 							{
								"box" : 								{
									"maxclass" : "newobj",
									"text" : "filtercoeff~ lowpass",
									"fontname" : "Verdana",
									"numinlets" : 3,
									"numoutlets" : 5,
									"fontsize" : 10.0,
									"outlettype" : [ "signal", "signal", "signal", "signal", "signal" ],
									"patching_rect" : [ 63.0, 238.0, 111.0, 19.0 ],
									"id" : "obj-6"
								}

							}
, 							{
								"box" : 								{
									"maxclass" : "newobj",
									"text" : "biquad~",
									"fontname" : "Verdana",
									"numinlets" : 6,
									"numoutlets" : 1,
									"fontsize" : 10.0,
									"outlettype" : [ "signal" ],
									"patching_rect" : [ 40.0, 267.0, 134.0, 19.0 ],
									"id" : "obj-7"
								}

							}
, 							{
								"box" : 								{
									"maxclass" : "newobj",
									"text" : "* 17000.",
									"fontname" : "Verdana",
									"numinlets" : 2,
									"numoutlets" : 1,
									"fontsize" : 10.0,
									"outlettype" : [ "float" ],
									"patching_rect" : [ 63.0, 140.0, 57.0, 19.0 ],
									"id" : "obj-8"
								}

							}
, 							{
								"box" : 								{
									"maxclass" : "newobj",
									"text" : "!- 18000.",
									"fontname" : "Verdana",
									"numinlets" : 2,
									"numoutlets" : 1,
									"fontsize" : 10.0,
									"outlettype" : [ "float" ],
									"patching_rect" : [ 63.0, 161.0, 59.0, 19.0 ],
									"id" : "obj-9"
								}

							}
, 							{
								"box" : 								{
									"maxclass" : "outlet",
									"numinlets" : 1,
									"numoutlets" : 0,
									"patching_rect" : [ 40.0, 292.0, 25.0, 25.0 ],
									"id" : "obj-10",
									"comment" : "filtered signal"
								}

							}
, 							{
								"box" : 								{
									"maxclass" : "inlet",
									"numinlets" : 0,
									"numoutlets" : 1,
									"outlettype" : [ "signal" ],
									"patching_rect" : [ 40.0, 36.0, 25.0, 25.0 ],
									"id" : "obj-11",
									"comment" : "signal in"
								}

							}
, 							{
								"box" : 								{
									"maxclass" : "comment",
									"text" : "high-frequency absorption by air as function of distance",
									"fontname" : "Verdana",
									"numinlets" : 1,
									"numoutlets" : 0,
									"fontsize" : 10.0,
									"patching_rect" : [ 15.0, 6.0, 293.0, 19.0 ],
									"id" : "obj-12"
								}

							}
, 							{
								"box" : 								{
									"maxclass" : "comment",
									"text" : "signal in",
									"fontname" : "Verdana",
									"numinlets" : 1,
									"numoutlets" : 0,
									"fontsize" : 10.0,
									"patching_rect" : [ 67.0, 39.0, 53.0, 19.0 ],
									"id" : "obj-13"
								}

							}
, 							{
								"box" : 								{
									"maxclass" : "comment",
									"text" : "aed coordinate input",
									"fontname" : "Verdana",
									"numinlets" : 1,
									"numoutlets" : 0,
									"fontsize" : 10.0,
									"patching_rect" : [ 91.0, 71.0, 115.0, 19.0 ],
									"id" : "obj-14"
								}

							}
 ],
						"lines" : [ 							{
								"patchline" : 								{
									"source" : [ "obj-11", 0 ],
									"destination" : [ "obj-7", 0 ],
									"hidden" : 0,
									"midpoints" : [  ]
								}

							}
, 							{
								"patchline" : 								{
									"source" : [ "obj-7", 0 ],
									"destination" : [ "obj-10", 0 ],
									"hidden" : 0,
									"midpoints" : [  ]
								}

							}
, 							{
								"patchline" : 								{
									"source" : [ "obj-4", 0 ],
									"destination" : [ "obj-2", 0 ],
									"hidden" : 0,
									"midpoints" : [  ]
								}

							}
, 							{
								"patchline" : 								{
									"source" : [ "obj-9", 0 ],
									"destination" : [ "obj-6", 0 ],
									"hidden" : 0,
									"midpoints" : [  ]
								}

							}
, 							{
								"patchline" : 								{
									"source" : [ "obj-6", 0 ],
									"destination" : [ "obj-7", 1 ],
									"hidden" : 0,
									"midpoints" : [  ]
								}

							}
, 							{
								"patchline" : 								{
									"source" : [ "obj-6", 1 ],
									"destination" : [ "obj-7", 2 ],
									"hidden" : 0,
									"midpoints" : [  ]
								}

							}
, 							{
								"patchline" : 								{
									"source" : [ "obj-6", 2 ],
									"destination" : [ "obj-7", 3 ],
									"hidden" : 0,
									"midpoints" : [  ]
								}

							}
, 							{
								"patchline" : 								{
									"source" : [ "obj-5", 0 ],
									"destination" : [ "obj-3", 0 ],
									"hidden" : 0,
									"midpoints" : [  ]
								}

							}
, 							{
								"patchline" : 								{
									"source" : [ "obj-3", 0 ],
									"destination" : [ "obj-6", 1 ],
									"hidden" : 0,
									"midpoints" : [  ]
								}

							}
, 							{
								"patchline" : 								{
									"source" : [ "obj-6", 3 ],
									"destination" : [ "obj-7", 4 ],
									"hidden" : 0,
									"midpoints" : [  ]
								}

							}
, 							{
								"patchline" : 								{
									"source" : [ "obj-6", 4 ],
									"destination" : [ "obj-7", 5 ],
									"hidden" : 0,
									"midpoints" : [  ]
								}

							}
, 							{
								"patchline" : 								{
									"source" : [ "obj-3", 1 ],
									"destination" : [ "obj-6", 2 ],
									"hidden" : 0,
									"midpoints" : [  ]
								}

							}
, 							{
								"patchline" : 								{
									"source" : [ "obj-8", 0 ],
									"destination" : [ "obj-9", 0 ],
									"hidden" : 0,
									"midpoints" : [  ]
								}

							}
, 							{
								"patchline" : 								{
									"source" : [ "obj-1", 0 ],
									"destination" : [ "obj-8", 0 ],
									"hidden" : 0,
									"midpoints" : [  ]
								}

							}
, 							{
								"patchline" : 								{
									"source" : [ "obj-2", 0 ],
									"destination" : [ "obj-1", 0 ],
									"hidden" : 0,
									"midpoints" : [  ]
								}

							}
 ]
					}
,
					"saved_object_attributes" : 					{
						"fontname" : "Arial",
						"globalpatchername" : "",
						"default_fontsize" : 11.0,
						"fontface" : 0,
						"fontsize" : 11.0,
						"default_fontface" : 0,
						"default_fontname" : "Arial"
					}

				}

			}
, 			{
				"box" : 				{
					"maxclass" : "newobj",
					"text" : "p absorption",
					"fontname" : "Verdana",
					"numinlets" : 2,
					"numoutlets" : 1,
					"fontsize" : 10.0,
					"outlettype" : [ "signal" ],
					"patching_rect" : [ 695.0, 391.0, 73.0, 19.0 ],
					"id" : "obj-31",
					"patcher" : 					{
						"fileversion" : 1,
						"rect" : [ 4.0, 407.0, 316.0, 331.0 ],
						"bglocked" : 0,
						"defrect" : [ 4.0, 407.0, 316.0, 331.0 ],
						"openrect" : [ 0.0, 0.0, 0.0, 0.0 ],
						"openinpresentation" : 0,
						"default_fontsize" : 11.0,
						"default_fontface" : 0,
						"default_fontname" : "Arial",
						"gridonopen" : 0,
						"gridsize" : [ 15.0, 15.0 ],
						"gridsnaponopen" : 0,
						"toolbarvisible" : 1,
						"boxanimatetime" : 200,
						"imprint" : 0,
						"enablehscroll" : 1,
						"enablevscroll" : 1,
						"devicewidth" : 0.0,
						"boxes" : [ 							{
								"box" : 								{
									"maxclass" : "newobj",
									"text" : "clip 0. 1.",
									"fontname" : "Verdana",
									"numinlets" : 3,
									"numoutlets" : 1,
									"fontsize" : 10.0,
									"outlettype" : [ "" ],
									"patching_rect" : [ 63.0, 119.0, 55.0, 19.0 ],
									"id" : "obj-1"
								}

							}
, 							{
								"box" : 								{
									"maxclass" : "newobj",
									"text" : "zl nth 3",
									"fontname" : "Verdana",
									"numinlets" : 2,
									"numoutlets" : 2,
									"fontsize" : 10.0,
									"outlettype" : [ "", "" ],
									"patching_rect" : [ 63.0, 97.0, 49.0, 19.0 ],
									"id" : "obj-2"
								}

							}
, 							{
								"box" : 								{
									"maxclass" : "newobj",
									"text" : "t 1 1",
									"fontname" : "Verdana",
									"numinlets" : 1,
									"numoutlets" : 2,
									"fontsize" : 10.0,
									"outlettype" : [ "int", "int" ],
									"patching_rect" : [ 109.0, 215.0, 38.0, 19.0 ],
									"id" : "obj-3"
								}

							}
, 							{
								"box" : 								{
									"maxclass" : "inlet",
									"numinlets" : 0,
									"numoutlets" : 1,
									"outlettype" : [ "" ],
									"patching_rect" : [ 63.0, 68.0, 25.0, 25.0 ],
									"id" : "obj-4",
									"comment" : "aed coordinate triplet"
								}

							}
, 							{
								"box" : 								{
									"maxclass" : "newobj",
									"text" : "loadbang",
									"fontname" : "Verdana",
									"numinlets" : 1,
									"numoutlets" : 1,
									"fontsize" : 10.0,
									"outlettype" : [ "bang" ],
									"patching_rect" : [ 109.0, 193.0, 57.0, 19.0 ],
									"id" : "obj-5"
								}

							}
, 							{
								"box" : 								{
									"maxclass" : "newobj",
									"text" : "filtercoeff~ lowpass",
									"fontname" : "Verdana",
									"numinlets" : 3,
									"numoutlets" : 5,
									"fontsize" : 10.0,
									"outlettype" : [ "signal", "signal", "signal", "signal", "signal" ],
									"patching_rect" : [ 63.0, 238.0, 111.0, 19.0 ],
									"id" : "obj-6"
								}

							}
, 							{
								"box" : 								{
									"maxclass" : "newobj",
									"text" : "biquad~",
									"fontname" : "Verdana",
									"numinlets" : 6,
									"numoutlets" : 1,
									"fontsize" : 10.0,
									"outlettype" : [ "signal" ],
									"patching_rect" : [ 40.0, 267.0, 134.0, 19.0 ],
									"id" : "obj-7"
								}

							}
, 							{
								"box" : 								{
									"maxclass" : "newobj",
									"text" : "* 17000.",
									"fontname" : "Verdana",
									"numinlets" : 2,
									"numoutlets" : 1,
									"fontsize" : 10.0,
									"outlettype" : [ "float" ],
									"patching_rect" : [ 63.0, 140.0, 57.0, 19.0 ],
									"id" : "obj-8"
								}

							}
, 							{
								"box" : 								{
									"maxclass" : "newobj",
									"text" : "!- 18000.",
									"fontname" : "Verdana",
									"numinlets" : 2,
									"numoutlets" : 1,
									"fontsize" : 10.0,
									"outlettype" : [ "float" ],
									"patching_rect" : [ 63.0, 161.0, 59.0, 19.0 ],
									"id" : "obj-9"
								}

							}
, 							{
								"box" : 								{
									"maxclass" : "outlet",
									"numinlets" : 1,
									"numoutlets" : 0,
									"patching_rect" : [ 40.0, 292.0, 25.0, 25.0 ],
									"id" : "obj-10",
									"comment" : "filtered signal"
								}

							}
, 							{
								"box" : 								{
									"maxclass" : "inlet",
									"numinlets" : 0,
									"numoutlets" : 1,
									"outlettype" : [ "signal" ],
									"patching_rect" : [ 40.0, 36.0, 25.0, 25.0 ],
									"id" : "obj-11",
									"comment" : "signal in"
								}

							}
, 							{
								"box" : 								{
									"maxclass" : "comment",
									"text" : "high-frequency absorption by air as function of distance",
									"fontname" : "Verdana",
									"numinlets" : 1,
									"numoutlets" : 0,
									"fontsize" : 10.0,
									"patching_rect" : [ 15.0, 6.0, 293.0, 19.0 ],
									"id" : "obj-12"
								}

							}
, 							{
								"box" : 								{
									"maxclass" : "comment",
									"text" : "signal in",
									"fontname" : "Verdana",
									"numinlets" : 1,
									"numoutlets" : 0,
									"fontsize" : 10.0,
									"patching_rect" : [ 67.0, 39.0, 53.0, 19.0 ],
									"id" : "obj-13"
								}

							}
, 							{
								"box" : 								{
									"maxclass" : "comment",
									"text" : "aed coordinate input",
									"fontname" : "Verdana",
									"numinlets" : 1,
									"numoutlets" : 0,
									"fontsize" : 10.0,
									"patching_rect" : [ 91.0, 71.0, 115.0, 19.0 ],
									"id" : "obj-14"
								}

							}
 ],
						"lines" : [ 							{
								"patchline" : 								{
									"source" : [ "obj-11", 0 ],
									"destination" : [ "obj-7", 0 ],
									"hidden" : 0,
									"midpoints" : [  ]
								}

							}
, 							{
								"patchline" : 								{
									"source" : [ "obj-7", 0 ],
									"destination" : [ "obj-10", 0 ],
									"hidden" : 0,
									"midpoints" : [  ]
								}

							}
, 							{
								"patchline" : 								{
									"source" : [ "obj-4", 0 ],
									"destination" : [ "obj-2", 0 ],
									"hidden" : 0,
									"midpoints" : [  ]
								}

							}
, 							{
								"patchline" : 								{
									"source" : [ "obj-9", 0 ],
									"destination" : [ "obj-6", 0 ],
									"hidden" : 0,
									"midpoints" : [  ]
								}

							}
, 							{
								"patchline" : 								{
									"source" : [ "obj-6", 0 ],
									"destination" : [ "obj-7", 1 ],
									"hidden" : 0,
									"midpoints" : [  ]
								}

							}
, 							{
								"patchline" : 								{
									"source" : [ "obj-6", 1 ],
									"destination" : [ "obj-7", 2 ],
									"hidden" : 0,
									"midpoints" : [  ]
								}

							}
, 							{
								"patchline" : 								{
									"source" : [ "obj-6", 2 ],
									"destination" : [ "obj-7", 3 ],
									"hidden" : 0,
									"midpoints" : [  ]
								}

							}
, 							{
								"patchline" : 								{
									"source" : [ "obj-5", 0 ],
									"destination" : [ "obj-3", 0 ],
									"hidden" : 0,
									"midpoints" : [  ]
								}

							}
, 							{
								"patchline" : 								{
									"source" : [ "obj-3", 0 ],
									"destination" : [ "obj-6", 1 ],
									"hidden" : 0,
									"midpoints" : [  ]
								}

							}
, 							{
								"patchline" : 								{
									"source" : [ "obj-6", 3 ],
									"destination" : [ "obj-7", 4 ],
									"hidden" : 0,
									"midpoints" : [  ]
								}

							}
, 							{
								"patchline" : 								{
									"source" : [ "obj-6", 4 ],
									"destination" : [ "obj-7", 5 ],
									"hidden" : 0,
									"midpoints" : [  ]
								}

							}
, 							{
								"patchline" : 								{
									"source" : [ "obj-3", 1 ],
									"destination" : [ "obj-6", 2 ],
									"hidden" : 0,
									"midpoints" : [  ]
								}

							}
, 							{
								"patchline" : 								{
									"source" : [ "obj-8", 0 ],
									"destination" : [ "obj-9", 0 ],
									"hidden" : 0,
									"midpoints" : [  ]
								}

							}
, 							{
								"patchline" : 								{
									"source" : [ "obj-1", 0 ],
									"destination" : [ "obj-8", 0 ],
									"hidden" : 0,
									"midpoints" : [  ]
								}

							}
, 							{
								"patchline" : 								{
									"source" : [ "obj-2", 0 ],
									"destination" : [ "obj-1", 0 ],
									"hidden" : 0,
									"midpoints" : [  ]
								}

							}
 ]
					}
,
					"saved_object_attributes" : 					{
						"fontname" : "Arial",
						"globalpatchername" : "",
						"default_fontsize" : 11.0,
						"fontface" : 0,
						"fontsize" : 11.0,
						"default_fontface" : 0,
						"default_fontname" : "Arial"
					}

				}

			}
, 			{
				"box" : 				{
					"maxclass" : "newobj",
					"text" : "p absorption",
					"fontname" : "Verdana",
					"numinlets" : 2,
					"numoutlets" : 1,
					"fontsize" : 10.0,
					"outlettype" : [ "signal" ],
					"patching_rect" : [ 614.0, 391.0, 73.0, 19.0 ],
					"id" : "obj-32",
					"patcher" : 					{
						"fileversion" : 1,
						"rect" : [ 4.0, 407.0, 316.0, 331.0 ],
						"bglocked" : 0,
						"defrect" : [ 4.0, 407.0, 316.0, 331.0 ],
						"openrect" : [ 0.0, 0.0, 0.0, 0.0 ],
						"openinpresentation" : 0,
						"default_fontsize" : 11.0,
						"default_fontface" : 0,
						"default_fontname" : "Arial",
						"gridonopen" : 0,
						"gridsize" : [ 15.0, 15.0 ],
						"gridsnaponopen" : 0,
						"toolbarvisible" : 1,
						"boxanimatetime" : 200,
						"imprint" : 0,
						"enablehscroll" : 1,
						"enablevscroll" : 1,
						"devicewidth" : 0.0,
						"boxes" : [ 							{
								"box" : 								{
									"maxclass" : "newobj",
									"text" : "clip 0. 1.",
									"fontname" : "Verdana",
									"numinlets" : 3,
									"numoutlets" : 1,
									"fontsize" : 10.0,
									"outlettype" : [ "" ],
									"patching_rect" : [ 63.0, 119.0, 55.0, 19.0 ],
									"id" : "obj-1"
								}

							}
, 							{
								"box" : 								{
									"maxclass" : "newobj",
									"text" : "zl nth 3",
									"fontname" : "Verdana",
									"numinlets" : 2,
									"numoutlets" : 2,
									"fontsize" : 10.0,
									"outlettype" : [ "", "" ],
									"patching_rect" : [ 63.0, 97.0, 49.0, 19.0 ],
									"id" : "obj-2"
								}

							}
, 							{
								"box" : 								{
									"maxclass" : "newobj",
									"text" : "t 1 1",
									"fontname" : "Verdana",
									"numinlets" : 1,
									"numoutlets" : 2,
									"fontsize" : 10.0,
									"outlettype" : [ "int", "int" ],
									"patching_rect" : [ 109.0, 215.0, 38.0, 19.0 ],
									"id" : "obj-3"
								}

							}
, 							{
								"box" : 								{
									"maxclass" : "inlet",
									"numinlets" : 0,
									"numoutlets" : 1,
									"outlettype" : [ "" ],
									"patching_rect" : [ 63.0, 68.0, 25.0, 25.0 ],
									"id" : "obj-4",
									"comment" : "aed coordinate triplet"
								}

							}
, 							{
								"box" : 								{
									"maxclass" : "newobj",
									"text" : "loadbang",
									"fontname" : "Verdana",
									"numinlets" : 1,
									"numoutlets" : 1,
									"fontsize" : 10.0,
									"outlettype" : [ "bang" ],
									"patching_rect" : [ 109.0, 193.0, 57.0, 19.0 ],
									"id" : "obj-5"
								}

							}
, 							{
								"box" : 								{
									"maxclass" : "newobj",
									"text" : "filtercoeff~ lowpass",
									"fontname" : "Verdana",
									"numinlets" : 3,
									"numoutlets" : 5,
									"fontsize" : 10.0,
									"outlettype" : [ "signal", "signal", "signal", "signal", "signal" ],
									"patching_rect" : [ 63.0, 238.0, 111.0, 19.0 ],
									"id" : "obj-6"
								}

							}
, 							{
								"box" : 								{
									"maxclass" : "newobj",
									"text" : "biquad~",
									"fontname" : "Verdana",
									"numinlets" : 6,
									"numoutlets" : 1,
									"fontsize" : 10.0,
									"outlettype" : [ "signal" ],
									"patching_rect" : [ 40.0, 267.0, 134.0, 19.0 ],
									"id" : "obj-7"
								}

							}
, 							{
								"box" : 								{
									"maxclass" : "newobj",
									"text" : "* 17000.",
									"fontname" : "Verdana",
									"numinlets" : 2,
									"numoutlets" : 1,
									"fontsize" : 10.0,
									"outlettype" : [ "float" ],
									"patching_rect" : [ 63.0, 140.0, 57.0, 19.0 ],
									"id" : "obj-8"
								}

							}
, 							{
								"box" : 								{
									"maxclass" : "newobj",
									"text" : "!- 18000.",
									"fontname" : "Verdana",
									"numinlets" : 2,
									"numoutlets" : 1,
									"fontsize" : 10.0,
									"outlettype" : [ "float" ],
									"patching_rect" : [ 63.0, 161.0, 59.0, 19.0 ],
									"id" : "obj-9"
								}

							}
, 							{
								"box" : 								{
									"maxclass" : "outlet",
									"numinlets" : 1,
									"numoutlets" : 0,
									"patching_rect" : [ 40.0, 292.0, 25.0, 25.0 ],
									"id" : "obj-10",
									"comment" : "filtered signal"
								}

							}
, 							{
								"box" : 								{
									"maxclass" : "inlet",
									"numinlets" : 0,
									"numoutlets" : 1,
									"outlettype" : [ "signal" ],
									"patching_rect" : [ 40.0, 36.0, 25.0, 25.0 ],
									"id" : "obj-11",
									"comment" : "signal in"
								}

							}
, 							{
								"box" : 								{
									"maxclass" : "comment",
									"text" : "high-frequency absorption by air as function of distance",
									"fontname" : "Verdana",
									"numinlets" : 1,
									"numoutlets" : 0,
									"fontsize" : 10.0,
									"patching_rect" : [ 15.0, 6.0, 293.0, 19.0 ],
									"id" : "obj-12"
								}

							}
, 							{
								"box" : 								{
									"maxclass" : "comment",
									"text" : "signal in",
									"fontname" : "Verdana",
									"numinlets" : 1,
									"numoutlets" : 0,
									"fontsize" : 10.0,
									"patching_rect" : [ 67.0, 39.0, 53.0, 19.0 ],
									"id" : "obj-13"
								}

							}
, 							{
								"box" : 								{
									"maxclass" : "comment",
									"text" : "aed coordinate input",
									"fontname" : "Verdana",
									"numinlets" : 1,
									"numoutlets" : 0,
									"fontsize" : 10.0,
									"patching_rect" : [ 91.0, 71.0, 115.0, 19.0 ],
									"id" : "obj-14"
								}

							}
 ],
						"lines" : [ 							{
								"patchline" : 								{
									"source" : [ "obj-11", 0 ],
									"destination" : [ "obj-7", 0 ],
									"hidden" : 0,
									"midpoints" : [  ]
								}

							}
, 							{
								"patchline" : 								{
									"source" : [ "obj-7", 0 ],
									"destination" : [ "obj-10", 0 ],
									"hidden" : 0,
									"midpoints" : [  ]
								}

							}
, 							{
								"patchline" : 								{
									"source" : [ "obj-4", 0 ],
									"destination" : [ "obj-2", 0 ],
									"hidden" : 0,
									"midpoints" : [  ]
								}

							}
, 							{
								"patchline" : 								{
									"source" : [ "obj-9", 0 ],
									"destination" : [ "obj-6", 0 ],
									"hidden" : 0,
									"midpoints" : [  ]
								}

							}
, 							{
								"patchline" : 								{
									"source" : [ "obj-6", 0 ],
									"destination" : [ "obj-7", 1 ],
									"hidden" : 0,
									"midpoints" : [  ]
								}

							}
, 							{
								"patchline" : 								{
									"source" : [ "obj-6", 1 ],
									"destination" : [ "obj-7", 2 ],
									"hidden" : 0,
									"midpoints" : [  ]
								}

							}
, 							{
								"patchline" : 								{
									"source" : [ "obj-6", 2 ],
									"destination" : [ "obj-7", 3 ],
									"hidden" : 0,
									"midpoints" : [  ]
								}

							}
, 							{
								"patchline" : 								{
									"source" : [ "obj-5", 0 ],
									"destination" : [ "obj-3", 0 ],
									"hidden" : 0,
									"midpoints" : [  ]
								}

							}
, 							{
								"patchline" : 								{
									"source" : [ "obj-3", 0 ],
									"destination" : [ "obj-6", 1 ],
									"hidden" : 0,
									"midpoints" : [  ]
								}

							}
, 							{
								"patchline" : 								{
									"source" : [ "obj-6", 3 ],
									"destination" : [ "obj-7", 4 ],
									"hidden" : 0,
									"midpoints" : [  ]
								}

							}
, 							{
								"patchline" : 								{
									"source" : [ "obj-6", 4 ],
									"destination" : [ "obj-7", 5 ],
									"hidden" : 0,
									"midpoints" : [  ]
								}

							}
, 							{
								"patchline" : 								{
									"source" : [ "obj-3", 1 ],
									"destination" : [ "obj-6", 2 ],
									"hidden" : 0,
									"midpoints" : [  ]
								}

							}
, 							{
								"patchline" : 								{
									"source" : [ "obj-8", 0 ],
									"destination" : [ "obj-9", 0 ],
									"hidden" : 0,
									"midpoints" : [  ]
								}

							}
, 							{
								"patchline" : 								{
									"source" : [ "obj-1", 0 ],
									"destination" : [ "obj-8", 0 ],
									"hidden" : 0,
									"midpoints" : [  ]
								}

							}
, 							{
								"patchline" : 								{
									"source" : [ "obj-2", 0 ],
									"destination" : [ "obj-1", 0 ],
									"hidden" : 0,
									"midpoints" : [  ]
								}

							}
 ]
					}
,
					"saved_object_attributes" : 					{
						"fontname" : "Arial",
						"globalpatchername" : "",
						"default_fontsize" : 11.0,
						"fontface" : 0,
						"fontsize" : 11.0,
						"default_fontface" : 0,
						"default_fontname" : "Arial"
					}

				}

			}
, 			{
				"box" : 				{
					"maxclass" : "newobj",
					"text" : "p absorption",
					"fontname" : "Verdana",
					"numinlets" : 2,
					"numoutlets" : 1,
					"fontsize" : 10.0,
					"outlettype" : [ "signal" ],
					"patching_rect" : [ 533.0, 391.0, 73.0, 19.0 ],
					"id" : "obj-33",
					"patcher" : 					{
						"fileversion" : 1,
						"rect" : [ 4.0, 407.0, 316.0, 331.0 ],
						"bglocked" : 0,
						"defrect" : [ 4.0, 407.0, 316.0, 331.0 ],
						"openrect" : [ 0.0, 0.0, 0.0, 0.0 ],
						"openinpresentation" : 0,
						"default_fontsize" : 11.0,
						"default_fontface" : 0,
						"default_fontname" : "Arial",
						"gridonopen" : 0,
						"gridsize" : [ 15.0, 15.0 ],
						"gridsnaponopen" : 0,
						"toolbarvisible" : 1,
						"boxanimatetime" : 200,
						"imprint" : 0,
						"enablehscroll" : 1,
						"enablevscroll" : 1,
						"devicewidth" : 0.0,
						"boxes" : [ 							{
								"box" : 								{
									"maxclass" : "newobj",
									"text" : "clip 0. 1.",
									"fontname" : "Verdana",
									"numinlets" : 3,
									"numoutlets" : 1,
									"fontsize" : 10.0,
									"outlettype" : [ "" ],
									"patching_rect" : [ 63.0, 119.0, 55.0, 19.0 ],
									"id" : "obj-1"
								}

							}
, 							{
								"box" : 								{
									"maxclass" : "newobj",
									"text" : "zl nth 3",
									"fontname" : "Verdana",
									"numinlets" : 2,
									"numoutlets" : 2,
									"fontsize" : 10.0,
									"outlettype" : [ "", "" ],
									"patching_rect" : [ 63.0, 97.0, 49.0, 19.0 ],
									"id" : "obj-2"
								}

							}
, 							{
								"box" : 								{
									"maxclass" : "newobj",
									"text" : "t 1 1",
									"fontname" : "Verdana",
									"numinlets" : 1,
									"numoutlets" : 2,
									"fontsize" : 10.0,
									"outlettype" : [ "int", "int" ],
									"patching_rect" : [ 109.0, 215.0, 38.0, 19.0 ],
									"id" : "obj-3"
								}

							}
, 							{
								"box" : 								{
									"maxclass" : "inlet",
									"numinlets" : 0,
									"numoutlets" : 1,
									"outlettype" : [ "" ],
									"patching_rect" : [ 63.0, 68.0, 25.0, 25.0 ],
									"id" : "obj-4",
									"comment" : "aed coordinate triplet"
								}

							}
, 							{
								"box" : 								{
									"maxclass" : "newobj",
									"text" : "loadbang",
									"fontname" : "Verdana",
									"numinlets" : 1,
									"numoutlets" : 1,
									"fontsize" : 10.0,
									"outlettype" : [ "bang" ],
									"patching_rect" : [ 109.0, 193.0, 57.0, 19.0 ],
									"id" : "obj-5"
								}

							}
, 							{
								"box" : 								{
									"maxclass" : "newobj",
									"text" : "filtercoeff~ lowpass",
									"fontname" : "Verdana",
									"numinlets" : 3,
									"numoutlets" : 5,
									"fontsize" : 10.0,
									"outlettype" : [ "signal", "signal", "signal", "signal", "signal" ],
									"patching_rect" : [ 63.0, 238.0, 111.0, 19.0 ],
									"id" : "obj-6"
								}

							}
, 							{
								"box" : 								{
									"maxclass" : "newobj",
									"text" : "biquad~",
									"fontname" : "Verdana",
									"numinlets" : 6,
									"numoutlets" : 1,
									"fontsize" : 10.0,
									"outlettype" : [ "signal" ],
									"patching_rect" : [ 40.0, 267.0, 134.0, 19.0 ],
									"id" : "obj-7"
								}

							}
, 							{
								"box" : 								{
									"maxclass" : "newobj",
									"text" : "* 17000.",
									"fontname" : "Verdana",
									"numinlets" : 2,
									"numoutlets" : 1,
									"fontsize" : 10.0,
									"outlettype" : [ "float" ],
									"patching_rect" : [ 63.0, 140.0, 57.0, 19.0 ],
									"id" : "obj-8"
								}

							}
, 							{
								"box" : 								{
									"maxclass" : "newobj",
									"text" : "!- 18000.",
									"fontname" : "Verdana",
									"numinlets" : 2,
									"numoutlets" : 1,
									"fontsize" : 10.0,
									"outlettype" : [ "float" ],
									"patching_rect" : [ 63.0, 161.0, 59.0, 19.0 ],
									"id" : "obj-9"
								}

							}
, 							{
								"box" : 								{
									"maxclass" : "outlet",
									"numinlets" : 1,
									"numoutlets" : 0,
									"patching_rect" : [ 40.0, 292.0, 25.0, 25.0 ],
									"id" : "obj-10",
									"comment" : "filtered signal"
								}

							}
, 							{
								"box" : 								{
									"maxclass" : "inlet",
									"numinlets" : 0,
									"numoutlets" : 1,
									"outlettype" : [ "signal" ],
									"patching_rect" : [ 40.0, 36.0, 25.0, 25.0 ],
									"id" : "obj-11",
									"comment" : "signal in"
								}

							}
, 							{
								"box" : 								{
									"maxclass" : "comment",
									"text" : "high-frequency absorption by air as function of distance",
									"fontname" : "Verdana",
									"numinlets" : 1,
									"numoutlets" : 0,
									"fontsize" : 10.0,
									"patching_rect" : [ 15.0, 6.0, 293.0, 19.0 ],
									"id" : "obj-12"
								}

							}
, 							{
								"box" : 								{
									"maxclass" : "comment",
									"text" : "signal in",
									"fontname" : "Verdana",
									"numinlets" : 1,
									"numoutlets" : 0,
									"fontsize" : 10.0,
									"patching_rect" : [ 67.0, 39.0, 53.0, 19.0 ],
									"id" : "obj-13"
								}

							}
, 							{
								"box" : 								{
									"maxclass" : "comment",
									"text" : "aed coordinate input",
									"fontname" : "Verdana",
									"numinlets" : 1,
									"numoutlets" : 0,
									"fontsize" : 10.0,
									"patching_rect" : [ 91.0, 71.0, 115.0, 19.0 ],
									"id" : "obj-14"
								}

							}
 ],
						"lines" : [ 							{
								"patchline" : 								{
									"source" : [ "obj-11", 0 ],
									"destination" : [ "obj-7", 0 ],
									"hidden" : 0,
									"midpoints" : [  ]
								}

							}
, 							{
								"patchline" : 								{
									"source" : [ "obj-7", 0 ],
									"destination" : [ "obj-10", 0 ],
									"hidden" : 0,
									"midpoints" : [  ]
								}

							}
, 							{
								"patchline" : 								{
									"source" : [ "obj-4", 0 ],
									"destination" : [ "obj-2", 0 ],
									"hidden" : 0,
									"midpoints" : [  ]
								}

							}
, 							{
								"patchline" : 								{
									"source" : [ "obj-9", 0 ],
									"destination" : [ "obj-6", 0 ],
									"hidden" : 0,
									"midpoints" : [  ]
								}

							}
, 							{
								"patchline" : 								{
									"source" : [ "obj-6", 0 ],
									"destination" : [ "obj-7", 1 ],
									"hidden" : 0,
									"midpoints" : [  ]
								}

							}
, 							{
								"patchline" : 								{
									"source" : [ "obj-6", 1 ],
									"destination" : [ "obj-7", 2 ],
									"hidden" : 0,
									"midpoints" : [  ]
								}

							}
, 							{
								"patchline" : 								{
									"source" : [ "obj-6", 2 ],
									"destination" : [ "obj-7", 3 ],
									"hidden" : 0,
									"midpoints" : [  ]
								}

							}
, 							{
								"patchline" : 								{
									"source" : [ "obj-5", 0 ],
									"destination" : [ "obj-3", 0 ],
									"hidden" : 0,
									"midpoints" : [  ]
								}

							}
, 							{
								"patchline" : 								{
									"source" : [ "obj-3", 0 ],
									"destination" : [ "obj-6", 1 ],
									"hidden" : 0,
									"midpoints" : [  ]
								}

							}
, 							{
								"patchline" : 								{
									"source" : [ "obj-6", 3 ],
									"destination" : [ "obj-7", 4 ],
									"hidden" : 0,
									"midpoints" : [  ]
								}

							}
, 							{
								"patchline" : 								{
									"source" : [ "obj-6", 4 ],
									"destination" : [ "obj-7", 5 ],
									"hidden" : 0,
									"midpoints" : [  ]
								}

							}
, 							{
								"patchline" : 								{
									"source" : [ "obj-3", 1 ],
									"destination" : [ "obj-6", 2 ],
									"hidden" : 0,
									"midpoints" : [  ]
								}

							}
, 							{
								"patchline" : 								{
									"source" : [ "obj-8", 0 ],
									"destination" : [ "obj-9", 0 ],
									"hidden" : 0,
									"midpoints" : [  ]
								}

							}
, 							{
								"patchline" : 								{
									"source" : [ "obj-1", 0 ],
									"destination" : [ "obj-8", 0 ],
									"hidden" : 0,
									"midpoints" : [  ]
								}

							}
, 							{
								"patchline" : 								{
									"source" : [ "obj-2", 0 ],
									"destination" : [ "obj-1", 0 ],
									"hidden" : 0,
									"midpoints" : [  ]
								}

							}
 ]
					}
,
					"saved_object_attributes" : 					{
						"fontname" : "Arial",
						"globalpatchername" : "",
						"default_fontsize" : 11.0,
						"fontface" : 0,
						"fontsize" : 11.0,
						"default_fontface" : 0,
						"default_fontname" : "Arial"
					}

				}

			}
, 			{
				"box" : 				{
					"maxclass" : "ambimonitor",
					"circle_color" : [ 0.765625, 0.765625, 0.765625, 1.0 ],
					"numinlets" : 1,
					"line_color" : [ 0.917969, 0.917969, 0.457031, 1.0 ],
					"numoutlets" : 3,
					"presentation_rect" : [ 0.0, 0.0, 20.0, 20.0 ],
					"grid_color" : [ 0.726562, 0.726562, 0.726562, 1.0 ],
					"outlettype" : [ "", "", "" ],
					"numbers" : 1,
					"bgcolor" : [ 0.996094, 0.996094, 0.996094, 1.0 ],
					"patching_rect" : [ 35.0, 98.0, 292.0, 292.0 ],
					"hi_grid_color" : [ 0.097656, 0.953125, 0.996094, 1.0 ],
					"id" : "obj-34",
					"grid" : 2
				}

			}
, 			{
				"box" : 				{
					"maxclass" : "meter~",
					"numleds" : 18,
					"numinlets" : 1,
					"hotcolor" : [ 0.811765, 0.356863, 0.635294, 1.0 ],
					"numoutlets" : 1,
					"tepidcolor" : [ 0.270588, 0.694118, 0.898039, 1.0 ],
					"coldcolor" : [ 0.552941, 1.0, 0.803922, 1.0 ],
					"overloadcolor" : [ 1.0, 0.498039, 0.0, 1.0 ],
					"outlettype" : [ "float" ],
					"bgcolor" : [ 0.0, 0.0, 0.25098, 1.0 ],
					"patching_rect" : [ 790.0, 182.0, 13.0, 78.0 ],
					"id" : "obj-35",
					"ntepidleds" : 5,
					"warmcolor" : [ 0.388235, 0.168627, 1.0, 1.0 ]
				}

			}
, 			{
				"box" : 				{
					"maxclass" : "meter~",
					"numleds" : 18,
					"numinlets" : 1,
					"hotcolor" : [ 0.811765, 0.356863, 0.635294, 1.0 ],
					"numoutlets" : 1,
					"tepidcolor" : [ 0.270588, 0.694118, 0.898039, 1.0 ],
					"coldcolor" : [ 0.552941, 1.0, 0.803922, 1.0 ],
					"overloadcolor" : [ 1.0, 0.498039, 0.0, 1.0 ],
					"outlettype" : [ "float" ],
					"bgcolor" : [ 0.0, 0.0, 0.25098, 1.0 ],
					"patching_rect" : [ 709.0, 182.0, 13.0, 78.0 ],
					"id" : "obj-36",
					"ntepidleds" : 5,
					"warmcolor" : [ 0.388235, 0.168627, 1.0, 1.0 ]
				}

			}
, 			{
				"box" : 				{
					"maxclass" : "meter~",
					"numleds" : 18,
					"numinlets" : 1,
					"hotcolor" : [ 0.811765, 0.356863, 0.635294, 1.0 ],
					"numoutlets" : 1,
					"tepidcolor" : [ 0.270588, 0.694118, 0.898039, 1.0 ],
					"coldcolor" : [ 0.552941, 1.0, 0.803922, 1.0 ],
					"overloadcolor" : [ 1.0, 0.498039, 0.0, 1.0 ],
					"outlettype" : [ "float" ],
					"bgcolor" : [ 0.0, 0.0, 0.25098, 1.0 ],
					"patching_rect" : [ 628.0, 182.0, 13.0, 78.0 ],
					"id" : "obj-37",
					"ntepidleds" : 5,
					"warmcolor" : [ 0.388235, 0.168627, 1.0, 1.0 ]
				}

			}
, 			{
				"box" : 				{
					"maxclass" : "meter~",
					"numleds" : 18,
					"numinlets" : 1,
					"hotcolor" : [ 0.811765, 0.356863, 0.635294, 1.0 ],
					"numoutlets" : 1,
					"tepidcolor" : [ 0.270588, 0.694118, 0.898039, 1.0 ],
					"coldcolor" : [ 0.552941, 1.0, 0.803922, 1.0 ],
					"overloadcolor" : [ 1.0, 0.498039, 0.0, 1.0 ],
					"outlettype" : [ "float" ],
					"bgcolor" : [ 0.0, 0.0, 0.25098, 1.0 ],
					"patching_rect" : [ 547.0, 182.0, 13.0, 78.0 ],
					"id" : "obj-38",
					"ntepidleds" : 5,
					"warmcolor" : [ 0.388235, 0.168627, 1.0, 1.0 ]
				}

			}
, 			{
				"box" : 				{
					"maxclass" : "meter~",
					"numleds" : 18,
					"numinlets" : 1,
					"hotcolor" : [ 0.811765, 0.356863, 0.635294, 1.0 ],
					"numoutlets" : 1,
					"tepidcolor" : [ 0.270588, 0.694118, 0.898039, 1.0 ],
					"coldcolor" : [ 0.552941, 1.0, 0.803922, 1.0 ],
					"overloadcolor" : [ 1.0, 0.498039, 0.0, 1.0 ],
					"outlettype" : [ "float" ],
					"bgcolor" : [ 0.0, 0.0, 0.25098, 1.0 ],
					"patching_rect" : [ 789.637451, 538.0, 13.0, 78.0 ],
					"id" : "obj-39",
					"ntepidleds" : 5,
					"warmcolor" : [ 0.388235, 0.168627, 1.0, 1.0 ]
				}

			}
, 			{
				"box" : 				{
					"maxclass" : "meter~",
					"numleds" : 18,
					"numinlets" : 1,
					"hotcolor" : [ 0.811765, 0.356863, 0.635294, 1.0 ],
					"numoutlets" : 1,
					"tepidcolor" : [ 0.270588, 0.694118, 0.898039, 1.0 ],
					"coldcolor" : [ 0.552941, 1.0, 0.803922, 1.0 ],
					"overloadcolor" : [ 1.0, 0.498039, 0.0, 1.0 ],
					"outlettype" : [ "float" ],
					"bgcolor" : [ 0.0, 0.0, 0.25098, 1.0 ],
					"patching_rect" : [ 754.68927, 538.0, 13.0, 78.0 ],
					"id" : "obj-40",
					"ntepidleds" : 5,
					"warmcolor" : [ 0.388235, 0.168627, 1.0, 1.0 ]
				}

			}
, 			{
				"box" : 				{
					"maxclass" : "meter~",
					"numleds" : 18,
					"numinlets" : 1,
					"hotcolor" : [ 0.811765, 0.356863, 0.635294, 1.0 ],
					"numoutlets" : 1,
					"tepidcolor" : [ 0.270588, 0.694118, 0.898039, 1.0 ],
					"coldcolor" : [ 0.552941, 1.0, 0.803922, 1.0 ],
					"overloadcolor" : [ 1.0, 0.498039, 0.0, 1.0 ],
					"outlettype" : [ "float" ],
					"bgcolor" : [ 0.0, 0.0, 0.25098, 1.0 ],
					"patching_rect" : [ 719.741028, 538.0, 13.0, 78.0 ],
					"id" : "obj-41",
					"ntepidleds" : 5,
					"warmcolor" : [ 0.388235, 0.168627, 1.0, 1.0 ]
				}

			}
, 			{
				"box" : 				{
					"maxclass" : "meter~",
					"numleds" : 18,
					"numinlets" : 1,
					"hotcolor" : [ 0.811765, 0.356863, 0.635294, 1.0 ],
					"numoutlets" : 1,
					"tepidcolor" : [ 0.270588, 0.694118, 0.898039, 1.0 ],
					"coldcolor" : [ 0.552941, 1.0, 0.803922, 1.0 ],
					"overloadcolor" : [ 1.0, 0.498039, 0.0, 1.0 ],
					"outlettype" : [ "float" ],
					"bgcolor" : [ 0.0, 0.0, 0.25098, 1.0 ],
					"patching_rect" : [ 685.792847, 538.0, 13.0, 78.0 ],
					"id" : "obj-42",
					"ntepidleds" : 5,
					"warmcolor" : [ 0.388235, 0.168627, 1.0, 1.0 ]
				}

			}
, 			{
				"box" : 				{
					"maxclass" : "meter~",
					"numleds" : 18,
					"numinlets" : 1,
					"hotcolor" : [ 0.811765, 0.356863, 0.635294, 1.0 ],
					"numoutlets" : 1,
					"tepidcolor" : [ 0.270588, 0.694118, 0.898039, 1.0 ],
					"coldcolor" : [ 0.552941, 1.0, 0.803922, 1.0 ],
					"overloadcolor" : [ 1.0, 0.498039, 0.0, 1.0 ],
					"outlettype" : [ "float" ],
					"bgcolor" : [ 0.0, 0.0, 0.25098, 1.0 ],
					"patching_rect" : [ 650.844604, 538.0, 13.0, 78.0 ],
					"id" : "obj-43",
					"ntepidleds" : 5,
					"warmcolor" : [ 0.388235, 0.168627, 1.0, 1.0 ]
				}

			}
, 			{
				"box" : 				{
					"maxclass" : "meter~",
					"numleds" : 18,
					"numinlets" : 1,
					"hotcolor" : [ 0.811765, 0.356863, 0.635294, 1.0 ],
					"numoutlets" : 1,
					"tepidcolor" : [ 0.270588, 0.694118, 0.898039, 1.0 ],
					"coldcolor" : [ 0.552941, 1.0, 0.803922, 1.0 ],
					"overloadcolor" : [ 1.0, 0.498039, 0.0, 1.0 ],
					"outlettype" : [ "float" ],
					"bgcolor" : [ 0.0, 0.0, 0.25098, 1.0 ],
					"patching_rect" : [ 615.896423, 538.0, 13.0, 78.0 ],
					"id" : "obj-44",
					"ntepidleds" : 5,
					"warmcolor" : [ 0.388235, 0.168627, 1.0, 1.0 ]
				}

			}
, 			{
				"box" : 				{
					"maxclass" : "meter~",
					"numleds" : 18,
					"numinlets" : 1,
					"hotcolor" : [ 0.811765, 0.356863, 0.635294, 1.0 ],
					"numoutlets" : 1,
					"tepidcolor" : [ 0.270588, 0.694118, 0.898039, 1.0 ],
					"coldcolor" : [ 0.552941, 1.0, 0.803922, 1.0 ],
					"overloadcolor" : [ 1.0, 0.498039, 0.0, 1.0 ],
					"outlettype" : [ "float" ],
					"bgcolor" : [ 0.0, 0.0, 0.25098, 1.0 ],
					"patching_rect" : [ 581.948181, 538.0, 13.0, 78.0 ],
					"id" : "obj-45",
					"ntepidleds" : 5,
					"warmcolor" : [ 0.388235, 0.168627, 1.0, 1.0 ]
				}

			}
, 			{
				"box" : 				{
					"maxclass" : "meter~",
					"numleds" : 18,
					"numinlets" : 1,
					"hotcolor" : [ 0.811765, 0.356863, 0.635294, 1.0 ],
					"numoutlets" : 1,
					"tepidcolor" : [ 0.270588, 0.694118, 0.898039, 1.0 ],
					"coldcolor" : [ 0.552941, 1.0, 0.803922, 1.0 ],
					"overloadcolor" : [ 1.0, 0.498039, 0.0, 1.0 ],
					"outlettype" : [ "float" ],
					"bgcolor" : [ 0.0, 0.0, 0.25098, 1.0 ],
					"patching_rect" : [ 547.0, 538.0, 13.0, 78.0 ],
					"id" : "obj-46",
					"ntepidleds" : 5,
					"warmcolor" : [ 0.388235, 0.168627, 1.0, 1.0 ]
				}

			}
, 			{
				"box" : 				{
					"maxclass" : "newobj",
					"text" : "dac~ 1 2 3 4 5 6 7 8",
					"fontname" : "Verdana",
					"numinlets" : 8,
					"numoutlets" : 0,
					"fontsize" : 10.0,
					"patching_rect" : [ 533.0, 629.0, 262.0, 19.0 ],
					"id" : "obj-47"
				}

			}
, 			{
				"box" : 				{
					"maxclass" : "newobj",
					"text" : "ambidecode~ 3 8",
					"fontname" : "Verdana",
					"numinlets" : 16,
					"numoutlets" : 8,
					"fontsize" : 10.0,
					"outlettype" : [ "signal", "signal", "signal", "signal", "signal", "signal", "signal", "signal" ],
					"patching_rect" : [ 533.0, 512.0, 261.5, 19.0 ],
					"id" : "obj-48",
					"saved_object_attributes" : 					{
						"orderweight" : [ 1.0, 0.6, 0.2, 0.028571 ],
						"gain" : 1.0,
						"order" : 3,
						"coord_system" : 0,
						"aed_scale" : 1.0,
						"active" : [ 1, 1, 1, 1, 1, 1, 1, 1 ],
						"xyz_scale" : 1.0,
						"coord_angles" : 0,
						"type" : 1
					}

				}

			}
, 			{
				"box" : 				{
					"maxclass" : "message",
					"text" : "open rainstick.aif, loop 1, 1",
					"linecount" : 3,
					"fontname" : "Verdana",
					"numinlets" : 2,
					"numoutlets" : 1,
					"fontsize" : 10.0,
					"outlettype" : [ "" ],
					"patching_rect" : [ 776.0, 105.0, 74.0, 41.0 ],
					"id" : "obj-49"
				}

			}
, 			{
				"box" : 				{
					"maxclass" : "newobj",
					"text" : "sfplay~",
					"fontname" : "Verdana",
					"numinlets" : 2,
					"numoutlets" : 2,
					"fontsize" : 10.0,
					"outlettype" : [ "signal", "bang" ],
					"patching_rect" : [ 776.0, 156.0, 48.0, 19.0 ],
					"id" : "obj-50",
					"save" : [ "#N", "sfplay~", "", 1, 120960, 0, "", ";" ]
				}

			}
, 			{
				"box" : 				{
					"maxclass" : "message",
					"text" : "open jongly.aif, loop 1, 1",
					"linecount" : 3,
					"fontname" : "Verdana",
					"numinlets" : 2,
					"numoutlets" : 1,
					"fontsize" : 10.0,
					"outlettype" : [ "" ],
					"patching_rect" : [ 695.0, 105.0, 65.0, 41.0 ],
					"id" : "obj-51"
				}

			}
, 			{
				"box" : 				{
					"maxclass" : "newobj",
					"text" : "sfplay~",
					"fontname" : "Verdana",
					"numinlets" : 2,
					"numoutlets" : 2,
					"fontsize" : 10.0,
					"outlettype" : [ "signal", "bang" ],
					"patching_rect" : [ 695.0, 156.0, 48.0, 19.0 ],
					"id" : "obj-52",
					"save" : [ "#N", "sfplay~", "", 1, 120960, 0, "", ";" ]
				}

			}
, 			{
				"box" : 				{
					"maxclass" : "message",
					"text" : "open cherokee.aif, loop 1, 1",
					"linecount" : 3,
					"fontname" : "Verdana",
					"numinlets" : 2,
					"numoutlets" : 1,
					"fontsize" : 10.0,
					"outlettype" : [ "" ],
					"patching_rect" : [ 614.0, 105.0, 77.0, 41.0 ],
					"id" : "obj-53"
				}

			}
, 			{
				"box" : 				{
					"maxclass" : "newobj",
					"text" : "sfplay~",
					"fontname" : "Verdana",
					"numinlets" : 2,
					"numoutlets" : 2,
					"fontsize" : 10.0,
					"outlettype" : [ "signal", "bang" ],
					"patching_rect" : [ 614.0, 156.0, 48.0, 19.0 ],
					"id" : "obj-54",
					"save" : [ "#N", "sfplay~", "", 1, 120960, 0, "", ";" ]
				}

			}
, 			{
				"box" : 				{
					"maxclass" : "message",
					"text" : "open anton.aif, loop 1, 1",
					"linecount" : 3,
					"fontname" : "Verdana",
					"numinlets" : 2,
					"numoutlets" : 1,
					"fontsize" : 10.0,
					"outlettype" : [ "" ],
					"patching_rect" : [ 533.0, 105.0, 63.0, 41.0 ],
					"id" : "obj-55"
				}

			}
, 			{
				"box" : 				{
					"maxclass" : "newobj",
					"text" : "sfplay~",
					"fontname" : "Verdana",
					"numinlets" : 2,
					"numoutlets" : 2,
					"fontsize" : 10.0,
					"outlettype" : [ "signal", "bang" ],
					"patching_rect" : [ 533.0, 156.0, 48.0, 19.0 ],
					"id" : "obj-56",
					"save" : [ "#N", "sfplay~", "", 1, 120960, 0, "", ";" ]
				}

			}
, 			{
				"box" : 				{
					"maxclass" : "newobj",
					"text" : "ambiencode~ 3 4",
					"fontname" : "Verdana",
					"numinlets" : 4,
					"numoutlets" : 16,
					"fontsize" : 10.0,
					"outlettype" : [ "signal", "signal", "signal", "signal", "signal", "signal", "signal", "signal", "signal", "signal", "signal", "signal", "signal", "signal", "signal", "signal" ],
					"patching_rect" : [ 533.0, 455.0, 261.5, 19.0 ],
					"id" : "obj-57",
					"saved_object_attributes" : 					{
						"center_size" : 1.0,
						"gain" : 1.0,
						"order" : 3,
						"coord_system" : 0,
						"center_curve" : 0.2,
						"distance_mode" : 2,
						"aed_scale" : 10.0,
						"interpolation" : 1,
						"db_unit" : 1.5,
						"active" : [ 1, 1, 1, 1 ],
						"xyz_scale" : 10.0,
						"dist_att" : 1.0,
						"coord_angles" : 0,
						"center_att_db" : 6.0,
						"type" : 1
					}

				}

			}
, 			{
				"box" : 				{
					"maxclass" : "comment",
					"text" : "implementation with air-absorption to improve distance perception",
					"fontname" : "Verdana Bold",
					"numinlets" : 1,
					"numoutlets" : 0,
					"fontsize" : 12.0,
					"patching_rect" : [ 26.0, 33.0, 465.0, 21.0 ],
					"id" : "obj-58"
				}

			}
, 			{
				"box" : 				{
					"maxclass" : "comment",
					"text" : "select monitor by clicking on it",
					"fontname" : "Verdana",
					"numinlets" : 1,
					"numoutlets" : 0,
					"fontsize" : 10.0,
					"patching_rect" : [ 67.0, 493.0, 165.0, 19.0 ],
					"id" : "obj-59"
				}

			}
, 			{
				"box" : 				{
					"maxclass" : "comment",
					"text" : "• 1.",
					"fontname" : "Verdana",
					"numinlets" : 1,
					"numoutlets" : 0,
					"fontsize" : 10.0,
					"patching_rect" : [ 40.0, 493.0, 29.0, 19.0 ],
					"id" : "obj-60"
				}

			}
 ],
		"lines" : [ 			{
				"patchline" : 				{
					"source" : [ "obj-25", 0 ],
					"destination" : [ "obj-30", 0 ],
					"hidden" : 0,
					"midpoints" : [  ]
				}

			}
, 			{
				"patchline" : 				{
					"source" : [ "obj-29", 3 ],
					"destination" : [ "obj-25", 1 ],
					"hidden" : 0,
					"midpoints" : [ 414.0, 265.0, 812.5, 265.0 ]
				}

			}
, 			{
				"patchline" : 				{
					"source" : [ "obj-50", 0 ],
					"destination" : [ "obj-25", 0 ],
					"hidden" : 0,
					"midpoints" : [  ]
				}

			}
, 			{
				"patchline" : 				{
					"source" : [ "obj-26", 0 ],
					"destination" : [ "obj-31", 0 ],
					"hidden" : 0,
					"midpoints" : [  ]
				}

			}
, 			{
				"patchline" : 				{
					"source" : [ "obj-29", 2 ],
					"destination" : [ "obj-26", 1 ],
					"hidden" : 0,
					"midpoints" : [ 399.5, 267.0, 731.5, 267.0 ]
				}

			}
, 			{
				"patchline" : 				{
					"source" : [ "obj-52", 0 ],
					"destination" : [ "obj-26", 0 ],
					"hidden" : 0,
					"midpoints" : [  ]
				}

			}
, 			{
				"patchline" : 				{
					"source" : [ "obj-27", 0 ],
					"destination" : [ "obj-32", 0 ],
					"hidden" : 0,
					"midpoints" : [  ]
				}

			}
, 			{
				"patchline" : 				{
					"source" : [ "obj-29", 1 ],
					"destination" : [ "obj-27", 1 ],
					"hidden" : 0,
					"midpoints" : [ 385.0, 269.0, 650.5, 269.0 ]
				}

			}
, 			{
				"patchline" : 				{
					"source" : [ "obj-54", 0 ],
					"destination" : [ "obj-27", 0 ],
					"hidden" : 0,
					"midpoints" : [  ]
				}

			}
, 			{
				"patchline" : 				{
					"source" : [ "obj-18", 0 ],
					"destination" : [ "obj-49", 0 ],
					"hidden" : 0,
					"midpoints" : [ 542.5, 99.0, 785.5, 99.0 ]
				}

			}
, 			{
				"patchline" : 				{
					"source" : [ "obj-50", 0 ],
					"destination" : [ "obj-35", 0 ],
					"hidden" : 0,
					"midpoints" : [  ]
				}

			}
, 			{
				"patchline" : 				{
					"source" : [ "obj-48", 7 ],
					"destination" : [ "obj-39", 0 ],
					"hidden" : 0,
					"midpoints" : [  ]
				}

			}
, 			{
				"patchline" : 				{
					"source" : [ "obj-49", 0 ],
					"destination" : [ "obj-50", 0 ],
					"hidden" : 0,
					"midpoints" : [  ]
				}

			}
, 			{
				"patchline" : 				{
					"source" : [ "obj-57", 15 ],
					"destination" : [ "obj-48", 15 ],
					"hidden" : 0,
					"color" : [ 1.0, 0.360784, 0.682353, 1.0 ],
					"midpoints" : [  ]
				}

			}
, 			{
				"patchline" : 				{
					"source" : [ "obj-48", 7 ],
					"destination" : [ "obj-47", 7 ],
					"hidden" : 0,
					"midpoints" : [  ]
				}

			}
, 			{
				"patchline" : 				{
					"source" : [ "obj-57", 14 ],
					"destination" : [ "obj-48", 14 ],
					"hidden" : 0,
					"color" : [ 1.0, 0.360784, 0.682353, 1.0 ],
					"midpoints" : [  ]
				}

			}
, 			{
				"patchline" : 				{
					"source" : [ "obj-48", 6 ],
					"destination" : [ "obj-40", 0 ],
					"hidden" : 0,
					"midpoints" : [  ]
				}

			}
, 			{
				"patchline" : 				{
					"source" : [ "obj-57", 13 ],
					"destination" : [ "obj-48", 13 ],
					"hidden" : 0,
					"color" : [ 1.0, 0.360784, 0.682353, 1.0 ],
					"midpoints" : [  ]
				}

			}
, 			{
				"patchline" : 				{
					"source" : [ "obj-48", 6 ],
					"destination" : [ "obj-47", 6 ],
					"hidden" : 0,
					"midpoints" : [  ]
				}

			}
, 			{
				"patchline" : 				{
					"source" : [ "obj-57", 12 ],
					"destination" : [ "obj-48", 12 ],
					"hidden" : 0,
					"color" : [ 1.0, 0.360784, 0.682353, 1.0 ],
					"midpoints" : [  ]
				}

			}
, 			{
				"patchline" : 				{
					"source" : [ "obj-48", 5 ],
					"destination" : [ "obj-41", 0 ],
					"hidden" : 0,
					"midpoints" : [  ]
				}

			}
, 			{
				"patchline" : 				{
					"source" : [ "obj-18", 0 ],
					"destination" : [ "obj-51", 0 ],
					"hidden" : 0,
					"midpoints" : [ 542.5, 99.0, 704.5, 99.0 ]
				}

			}
, 			{
				"patchline" : 				{
					"source" : [ "obj-57", 11 ],
					"destination" : [ "obj-48", 11 ],
					"hidden" : 0,
					"color" : [ 1.0, 0.360784, 0.682353, 1.0 ],
					"midpoints" : [  ]
				}

			}
, 			{
				"patchline" : 				{
					"source" : [ "obj-52", 0 ],
					"destination" : [ "obj-36", 0 ],
					"hidden" : 0,
					"midpoints" : [  ]
				}

			}
, 			{
				"patchline" : 				{
					"source" : [ "obj-48", 5 ],
					"destination" : [ "obj-47", 5 ],
					"hidden" : 0,
					"midpoints" : [  ]
				}

			}
, 			{
				"patchline" : 				{
					"source" : [ "obj-51", 0 ],
					"destination" : [ "obj-52", 0 ],
					"hidden" : 0,
					"midpoints" : [  ]
				}

			}
, 			{
				"patchline" : 				{
					"source" : [ "obj-57", 10 ],
					"destination" : [ "obj-48", 10 ],
					"hidden" : 0,
					"color" : [ 1.0, 0.360784, 0.682353, 1.0 ],
					"midpoints" : [  ]
				}

			}
, 			{
				"patchline" : 				{
					"source" : [ "obj-48", 4 ],
					"destination" : [ "obj-42", 0 ],
					"hidden" : 0,
					"midpoints" : [  ]
				}

			}
, 			{
				"patchline" : 				{
					"source" : [ "obj-57", 9 ],
					"destination" : [ "obj-48", 9 ],
					"hidden" : 0,
					"color" : [ 1.0, 0.360784, 0.682353, 1.0 ],
					"midpoints" : [  ]
				}

			}
, 			{
				"patchline" : 				{
					"source" : [ "obj-48", 4 ],
					"destination" : [ "obj-47", 4 ],
					"hidden" : 0,
					"midpoints" : [  ]
				}

			}
, 			{
				"patchline" : 				{
					"source" : [ "obj-57", 8 ],
					"destination" : [ "obj-48", 8 ],
					"hidden" : 0,
					"color" : [ 1.0, 0.360784, 0.682353, 1.0 ],
					"midpoints" : [  ]
				}

			}
, 			{
				"patchline" : 				{
					"source" : [ "obj-57", 7 ],
					"destination" : [ "obj-48", 7 ],
					"hidden" : 0,
					"color" : [ 1.0, 0.360784, 0.682353, 1.0 ],
					"midpoints" : [  ]
				}

			}
, 			{
				"patchline" : 				{
					"source" : [ "obj-48", 3 ],
					"destination" : [ "obj-43", 0 ],
					"hidden" : 0,
					"midpoints" : [  ]
				}

			}
, 			{
				"patchline" : 				{
					"source" : [ "obj-48", 3 ],
					"destination" : [ "obj-47", 3 ],
					"hidden" : 0,
					"midpoints" : [  ]
				}

			}
, 			{
				"patchline" : 				{
					"source" : [ "obj-57", 6 ],
					"destination" : [ "obj-48", 6 ],
					"hidden" : 0,
					"color" : [ 1.0, 0.360784, 0.682353, 1.0 ],
					"midpoints" : [  ]
				}

			}
, 			{
				"patchline" : 				{
					"source" : [ "obj-54", 0 ],
					"destination" : [ "obj-37", 0 ],
					"hidden" : 0,
					"midpoints" : [  ]
				}

			}
, 			{
				"patchline" : 				{
					"source" : [ "obj-53", 0 ],
					"destination" : [ "obj-54", 0 ],
					"hidden" : 0,
					"midpoints" : [  ]
				}

			}
, 			{
				"patchline" : 				{
					"source" : [ "obj-18", 0 ],
					"destination" : [ "obj-53", 0 ],
					"hidden" : 0,
					"midpoints" : [ 542.5, 99.0, 623.5, 99.0 ]
				}

			}
, 			{
				"patchline" : 				{
					"source" : [ "obj-57", 5 ],
					"destination" : [ "obj-48", 5 ],
					"hidden" : 0,
					"color" : [ 1.0, 0.360784, 0.682353, 1.0 ],
					"midpoints" : [  ]
				}

			}
, 			{
				"patchline" : 				{
					"source" : [ "obj-48", 2 ],
					"destination" : [ "obj-44", 0 ],
					"hidden" : 0,
					"midpoints" : [  ]
				}

			}
, 			{
				"patchline" : 				{
					"source" : [ "obj-48", 2 ],
					"destination" : [ "obj-47", 2 ],
					"hidden" : 0,
					"midpoints" : [  ]
				}

			}
, 			{
				"patchline" : 				{
					"source" : [ "obj-57", 4 ],
					"destination" : [ "obj-48", 4 ],
					"hidden" : 0,
					"color" : [ 1.0, 0.360784, 0.682353, 1.0 ],
					"midpoints" : [  ]
				}

			}
, 			{
				"patchline" : 				{
					"source" : [ "obj-57", 3 ],
					"destination" : [ "obj-48", 3 ],
					"hidden" : 0,
					"color" : [ 1.0, 0.360784, 0.682353, 1.0 ],
					"midpoints" : [  ]
				}

			}
, 			{
				"patchline" : 				{
					"source" : [ "obj-48", 1 ],
					"destination" : [ "obj-45", 0 ],
					"hidden" : 0,
					"midpoints" : [  ]
				}

			}
, 			{
				"patchline" : 				{
					"source" : [ "obj-48", 1 ],
					"destination" : [ "obj-47", 1 ],
					"hidden" : 0,
					"midpoints" : [  ]
				}

			}
, 			{
				"patchline" : 				{
					"source" : [ "obj-57", 2 ],
					"destination" : [ "obj-48", 2 ],
					"hidden" : 0,
					"color" : [ 1.0, 0.360784, 0.682353, 1.0 ],
					"midpoints" : [  ]
				}

			}
, 			{
				"patchline" : 				{
					"source" : [ "obj-29", 0 ],
					"destination" : [ "obj-28", 1 ],
					"hidden" : 0,
					"midpoints" : [ 370.5, 271.0, 569.5, 271.0 ]
				}

			}
, 			{
				"patchline" : 				{
					"source" : [ "obj-57", 1 ],
					"destination" : [ "obj-48", 1 ],
					"hidden" : 0,
					"color" : [ 1.0, 0.360784, 0.682353, 1.0 ],
					"midpoints" : [  ]
				}

			}
, 			{
				"patchline" : 				{
					"source" : [ "obj-48", 0 ],
					"destination" : [ "obj-46", 0 ],
					"hidden" : 0,
					"midpoints" : [  ]
				}

			}
, 			{
				"patchline" : 				{
					"source" : [ "obj-56", 0 ],
					"destination" : [ "obj-38", 0 ],
					"hidden" : 0,
					"midpoints" : [  ]
				}

			}
, 			{
				"patchline" : 				{
					"source" : [ "obj-22", 0 ],
					"destination" : [ "obj-47", 0 ],
					"hidden" : 0,
					"midpoints" : [ 497.5, 623.0, 542.5, 623.0 ]
				}

			}
, 			{
				"patchline" : 				{
					"source" : [ "obj-23", 0 ],
					"destination" : [ "obj-47", 0 ],
					"hidden" : 0,
					"midpoints" : [ 423.5, 623.0, 542.5, 623.0 ]
				}

			}
, 			{
				"patchline" : 				{
					"source" : [ "obj-48", 0 ],
					"destination" : [ "obj-47", 0 ],
					"hidden" : 0,
					"midpoints" : [  ]
				}

			}
, 			{
				"patchline" : 				{
					"source" : [ "obj-57", 0 ],
					"destination" : [ "obj-48", 0 ],
					"hidden" : 0,
					"color" : [ 1.0, 0.360784, 0.682353, 1.0 ],
					"midpoints" : [  ]
				}

			}
, 			{
				"patchline" : 				{
					"source" : [ "obj-34", 0 ],
					"destination" : [ "obj-57", 0 ],
					"hidden" : 0,
					"midpoints" : [ 44.5, 449.0, 542.5, 449.0 ]
				}

			}
, 			{
				"patchline" : 				{
					"source" : [ "obj-56", 0 ],
					"destination" : [ "obj-28", 0 ],
					"hidden" : 0,
					"midpoints" : [  ]
				}

			}
, 			{
				"patchline" : 				{
					"source" : [ "obj-55", 0 ],
					"destination" : [ "obj-56", 0 ],
					"hidden" : 0,
					"midpoints" : [  ]
				}

			}
, 			{
				"patchline" : 				{
					"source" : [ "obj-18", 0 ],
					"destination" : [ "obj-55", 0 ],
					"hidden" : 0,
					"midpoints" : [ 542.5, 99.0, 542.5, 99.0 ]
				}

			}
, 			{
				"patchline" : 				{
					"source" : [ "obj-24", 0 ],
					"destination" : [ "obj-29", 0 ],
					"hidden" : 0,
					"midpoints" : [  ]
				}

			}
, 			{
				"patchline" : 				{
					"source" : [ "obj-24", 0 ],
					"destination" : [ "obj-21", 0 ],
					"hidden" : 0,
					"midpoints" : [  ]
				}

			}
, 			{
				"patchline" : 				{
					"source" : [ "obj-34", 0 ],
					"destination" : [ "obj-24", 0 ],
					"hidden" : 0,
					"midpoints" : [ 44.5, 398.0, 344.0, 398.0, 344.0, 214.0, 360.5, 214.0 ]
				}

			}
, 			{
				"patchline" : 				{
					"source" : [ "obj-20", 0 ],
					"destination" : [ "obj-34", 0 ],
					"hidden" : 1,
					"midpoints" : [  ]
				}

			}
, 			{
				"patchline" : 				{
					"source" : [ "obj-19", 0 ],
					"destination" : [ "obj-20", 0 ],
					"hidden" : 1,
					"midpoints" : [  ]
				}

			}
, 			{
				"patchline" : 				{
					"source" : [ "obj-28", 0 ],
					"destination" : [ "obj-33", 0 ],
					"hidden" : 0,
					"midpoints" : [  ]
				}

			}
, 			{
				"patchline" : 				{
					"source" : [ "obj-33", 0 ],
					"destination" : [ "obj-57", 0 ],
					"hidden" : 0,
					"midpoints" : [  ]
				}

			}
, 			{
				"patchline" : 				{
					"source" : [ "obj-21", 0 ],
					"destination" : [ "obj-33", 1 ],
					"hidden" : 0,
					"midpoints" : [ 360.5, 376.0, 596.5, 376.0 ]
				}

			}
, 			{
				"patchline" : 				{
					"source" : [ "obj-32", 0 ],
					"destination" : [ "obj-57", 1 ],
					"hidden" : 0,
					"midpoints" : [  ]
				}

			}
, 			{
				"patchline" : 				{
					"source" : [ "obj-21", 1 ],
					"destination" : [ "obj-32", 1 ],
					"hidden" : 0,
					"midpoints" : [ 375.0, 374.0, 677.5, 374.0 ]
				}

			}
, 			{
				"patchline" : 				{
					"source" : [ "obj-31", 0 ],
					"destination" : [ "obj-57", 2 ],
					"hidden" : 0,
					"midpoints" : [  ]
				}

			}
, 			{
				"patchline" : 				{
					"source" : [ "obj-21", 2 ],
					"destination" : [ "obj-31", 1 ],
					"hidden" : 0,
					"midpoints" : [ 389.5, 372.0, 758.5, 372.0 ]
				}

			}
, 			{
				"patchline" : 				{
					"source" : [ "obj-30", 0 ],
					"destination" : [ "obj-57", 3 ],
					"hidden" : 0,
					"midpoints" : [  ]
				}

			}
, 			{
				"patchline" : 				{
					"source" : [ "obj-21", 3 ],
					"destination" : [ "obj-30", 1 ],
					"hidden" : 0,
					"midpoints" : [ 404.0, 370.0, 839.5, 370.0 ]
				}

			}
 ]
	}

}
